{"glyphs":{"0":{"ha":772,"x_min":25,"x_max":753,"o":"m 753 504 q 671 847 753 700 q 389 1024 571 1024 q 107 847 207 1024 q 25 504 25 703 q 107 163 25 307 q 389 -14 207 -14 q 672 161 572 -14 q 753 504 753 304 m 693 504 q 617 188 693 314 q 389 44 532 44 q 151 206 235 44 q 86 504 86 333 q 163 822 86 692 q 389 967 249 967 q 628 806 546 967 q 693 504 693 678 z "},"1":{"ha":757,"x_min":242,"x_max":467,"o":"m 467 0 l 467 992 l 279 992 l 242 935 l 410 935 l 410 0 l 467 0 z "},"2":{"ha":757,"x_min":85,"x_max":686,"o":"m 686 736 q 601 926 686 854 q 399 1000 517 1000 q 178 908 261 1000 q 106 765 115 838 l 168 765 q 222 872 183 829 q 399 944 286 944 q 560 885 490 944 q 629 736 629 824 q 571 563 629 646 l 85 0 l 685 0 l 685 57 l 210 57 l 494 379 q 558 453 533 424 q 596 499 583 483 q 686 736 686 615 z "},"3":{"ha":757,"x_min":103,"x_max":658,"o":"m 658 268 q 464 535 658 476 q 650 761 650 576 q 574 944 650 876 q 383 1014 497 1014 q 201 951 274 1014 q 117 782 129 890 l 182 782 q 383 957 217 957 q 526 901 471 957 q 582 761 582 847 q 531 624 582 671 q 390 575 478 575 l 332 575 l 332 493 l 390 493 q 515 444 454 493 q 596 268 596 381 q 531 113 596 178 q 374 50 465 50 q 243 96 303 50 q 164 210 182 142 l 103 210 q 197 50 126 107 q 374 -7 271 -7 q 578 69 497 -7 q 658 268 658 144 z "},"4":{"ha":757,"x_min":64,"x_max":747,"o":"m 747 189 l 747 244 l 632 244 l 632 1006 l 64 189 l 574 189 l 574 0 l 632 0 l 632 189 l 747 189 m 574 244 l 165 244 l 574 829 l 574 244 z "},"5":{"ha":757,"x_min":38,"x_max":714,"o":"m 714 354 q 603 607 714 513 q 361 690 494 699 l 303 686 l 247 679 l 307 935 l 643 935 l 643 992 l 263 992 l 164 607 q 263 626 215 626 q 296 632 283 632 l 317 632 l 361 633 q 564 563 476 638 q 657 354 657 483 q 574 133 657 222 q 361 43 490 43 q 185 93 253 43 q 90 215 131 133 l 38 194 q 361 -14 125 -14 q 617 90 518 -14 q 714 354 714 193 z "},"6":{"ha":757,"x_min":40,"x_max":722,"o":"m 722 318 q 624 561 722 463 q 381 658 526 658 l 318 653 l 258 636 l 200 607 l 411 992 l 346 992 l 97 546 q 74 497 85 522 q 56 442 63 471 q 46 403 49 418 q 42 379 43 388 q 40 363 40 371 q 40 349 40 356 l 40 318 q 135 71 40 168 q 381 -24 229 -24 q 625 74 528 -24 q 722 318 722 171 m 667 318 q 585 114 667 196 q 381 32 503 32 q 176 114 258 32 q 96 318 96 194 q 179 519 96 436 q 381 603 263 603 q 583 518 500 603 q 667 318 667 432 z "},"7":{"ha":757,"x_min":33,"x_max":740,"o":"m 740 992 l 43 992 l 43 935 l 635 935 l 33 22 l 81 -14 l 740 992 z "},"8":{"ha":757,"x_min":92,"x_max":669,"o":"m 669 264 q 601 446 669 374 q 479 525 554 497 q 593 611 553 549 q 635 753 635 675 q 564 938 635 867 q 379 1008 493 1008 q 196 936 267 1008 q 125 753 125 865 q 165 614 125 679 q 276 525 207 546 q 140 424 189 492 q 92 264 92 354 q 174 60 92 139 q 382 -18 256 -18 q 589 61 507 -18 q 669 264 669 140 m 579 753 q 522 610 579 667 q 459 565 494 582 q 379 549 424 549 q 301 567 336 549 q 238 613 265 585 q 181 753 181 669 q 238 896 181 839 q 379 953 294 953 q 522 896 465 953 q 579 753 579 839 m 614 264 q 546 101 614 165 q 379 38 481 38 q 213 104 279 38 q 147 264 147 169 q 217 426 147 357 q 292 480 251 460 q 379 500 332 500 q 469 480 428 500 q 544 425 510 460 q 614 264 614 358 z "},"9":{"ha":757,"x_min":42,"x_max":724,"o":"m 724 657 q 626 901 724 804 q 383 999 531 999 q 139 901 236 999 q 42 657 42 804 q 139 413 42 510 q 383 317 236 317 l 446 322 l 506 339 l 564 368 l 367 11 l 419 -14 l 667 429 q 691 480 681 454 q 708 533 701 506 q 720 597 717 565 q 724 657 724 628 m 668 657 q 586 454 668 536 q 383 372 504 372 q 179 456 260 372 q 97 657 97 540 q 179 861 97 779 q 383 943 261 943 q 588 861 506 943 q 668 657 668 781 z "},"\u0007":{"ha":1389,"x_min":0,"x_max":0,"o":""},"\u0005":{"ha":503,"x_min":113,"x_max":411,"o":"m 411 738 l 386 768 q 268 717 335 717 q 142 771 196 717 l 113 738 q 263 676 169 676 q 411 738 358 676 z "},"\u0006":{"ha":432,"x_min":124,"x_max":215,"o":"m 215 735 q 169 781 204 781 q 124 735 124 772 q 138 701 125 714 q 169 689 154 689 q 215 735 215 689 z "},"\b":{"ha":411,"x_min":97,"x_max":328,"o":"m 328 747 q 293 828 328 793 q 213 863 258 863 q 132 828 167 863 q 97 747 97 793 q 132 667 97 701 q 213 632 167 632 q 293 667 258 632 q 328 747 328 701 m 299 749 q 272 689 299 715 q 213 663 246 663 q 153 689 179 663 q 126 749 126 715 q 153 808 126 782 q 213 835 179 835 q 272 808 246 835 q 299 749 299 782 z "},"\u000b":{"ha":368,"x_min":97,"x_max":269,"o":"m 269 -175 l 269 -119 l 238 -140 q 203 -149 217 -149 q 169 -135 179 -149 q 161 -99 161 -117 q 169 -53 161 -76 l 196 0 l 132 0 q 104 -58 106 -50 l 97 -89 l 97 -119 q 121 -183 97 -157 q 181 -208 143 -208 l 207 -206 l 232 -197 q 269 -175 257 -189 z "},"\f":{"ha":525,"x_min":93,"x_max":429,"o":"m 429 776 l 400 807 l 261 669 l 122 807 l 93 776 l 261 610 l 429 776 z "},"\r":{"ha":256,"x_min":100,"x_max":157,"o":"m 157 0 l 157 574 l 100 574 l 100 0 l 157 0 z "},"\u0019":{"ha":1142,"x_min":69,"x_max":1117,"o":"m 1117 -140 l 893 83 q 1090 496 1090 225 q 947 864 1090 721 q 579 1006 803 1006 q 211 863 354 1006 q 69 496 69 721 q 213 128 69 271 q 579 -14 354 -14 q 847 54 729 -14 l 1040 -140 l 1117 -140 m 1013 344 q 851 125 971 208 l 668 308 l 594 308 l 804 97 q 579 43 704 43 q 253 171 381 43 q 126 496 126 297 q 254 822 126 694 q 579 950 379 950 q 907 822 779 950 q 1033 511 1029 700 l 1026 518 q 946 553 992 553 q 865 518 900 553 q 831 438 831 483 q 865 357 831 392 q 946 322 900 322 q 1013 344 985 322 m 1032 447 q 1030 430 1031 439 q 1028 413 1029 421 q 1006 379 1022 396 q 946 353 979 353 q 886 379 913 353 q 860 439 860 406 q 886 499 860 472 q 946 525 913 525 q 1006 499 979 525 q 1032 447 1028 476 m 561 438 q 526 518 561 483 q 446 553 492 553 q 365 518 400 553 q 331 438 331 483 q 365 357 331 392 q 446 322 400 322 q 526 357 492 322 q 561 438 561 392 m 532 439 q 506 379 532 406 q 446 353 479 353 q 386 379 413 353 q 360 439 360 406 q 386 499 360 472 q 446 525 413 525 q 506 499 479 525 q 532 439 532 472 m 429 415 q 438 394 429 403 q 460 385 447 385 q 481 394 472 385 q 490 415 490 403 q 481 437 490 428 q 460 446 472 446 q 438 437 447 446 q 429 415 429 428 m 931 411 q 940 390 931 399 q 961 381 949 381 q 983 390 974 381 q 992 411 992 399 q 983 433 992 424 q 961 442 974 442 q 940 433 949 442 q 931 411 931 424 z "},"\u001a":{"ha":654,"x_min":43,"x_max":614,"o":"m 614 517 l 614 574 l 439 574 l 439 903 q 389 1003 439 965 q 279 1036 344 1036 q 167 999 213 1036 q 121 896 121 961 l 121 574 l 43 574 l 43 517 l 121 517 l 121 0 l 178 0 l 178 517 l 383 517 l 383 0 l 439 0 l 439 517 l 614 517 m 383 574 l 178 574 l 178 886 q 279 981 178 981 q 383 889 383 981 l 383 574 z "},"\u001b":{"ha":638,"x_min":43,"x_max":600,"o":"m 600 967 l 600 1021 l 564 1026 q 550 1028 558 1028 q 529 1029 542 1029 q 451 1010 488 1029 q 404 949 408 988 q 279 1000 367 1000 q 164 958 207 1000 q 121 846 121 917 l 121 574 l 43 574 l 43 517 l 121 517 l 121 0 l 178 0 l 178 517 l 390 517 l 390 0 l 446 0 l 446 517 l 582 517 l 582 574 l 446 574 l 446 886 q 472 958 446 938 q 528 975 493 975 l 574 971 l 600 967 m 390 574 l 178 574 l 178 839 q 279 944 178 944 q 347 926 317 944 q 390 881 378 910 l 390 574 z "}," ":{"ha":354,"x_min":0,"x_max":0,"o":""},"!":{"ha":283,"x_min":93,"x_max":193,"o":"m 169 206 l 169 992 l 114 992 l 114 206 l 169 206 m 193 44 q 178 79 189 68 q 143 94 163 94 q 93 44 93 86 q 143 -6 93 -6 q 193 44 193 3 z "},"\"":{"ha":375,"x_min":85,"x_max":297,"o":"m 297 1010 l 240 1010 l 256 788 l 283 788 l 297 1010 m 142 1010 l 85 1010 l 99 788 l 128 788 l 142 1010 z "},"#":{"ha":751,"x_min":44,"x_max":725,"o":"m 725 717 l 543 717 l 585 893 l 551 893 l 508 717 l 315 717 l 357 893 l 324 893 l 281 717 l 88 717 l 76 683 l 272 683 l 233 524 l 56 524 l 44 489 l 225 489 l 183 314 l 217 314 l 260 489 l 454 489 l 408 307 l 443 307 l 488 489 l 674 489 l 685 524 l 496 524 l 535 683 l 714 683 l 725 717 m 501 683 l 463 524 l 268 524 l 306 683 l 501 683 z "},"$":{"ha":658,"x_min":50,"x_max":621,"o":"m 621 271 q 379 558 621 464 l 379 940 q 526 843 481 926 l 579 867 q 379 996 514 996 l 379 1069 l 324 1069 l 324 996 q 165 929 228 996 q 103 768 103 864 q 165 606 103 665 q 324 519 213 558 l 324 47 q 107 224 154 47 l 50 204 q 147 46 75 103 q 324 -11 221 -11 l 324 -85 l 379 -85 l 379 -10 q 563 74 497 -10 q 621 271 621 149 m 324 581 q 211 646 247 611 q 161 763 161 692 q 206 883 161 835 q 324 940 247 929 l 324 581 m 564 271 q 521 115 564 175 q 379 47 474 47 l 379 497 q 564 271 564 422 z "},"%":{"ha":738,"x_min":60,"x_max":683,"o":"m 406 794 q 354 917 406 865 q 232 968 303 968 q 110 917 161 968 q 60 794 60 864 q 113 675 60 728 q 232 624 164 624 q 356 674 303 624 q 406 794 406 721 m 681 992 l 625 992 l 86 0 l 142 0 l 681 992 m 683 160 q 632 282 683 231 q 510 333 581 333 q 388 282 439 333 q 338 160 338 229 q 390 40 338 93 q 510 -11 442 -11 q 633 39 581 -11 q 683 160 683 86 m 349 794 q 314 714 349 749 q 232 681 274 681 q 151 715 186 681 q 117 794 117 749 q 151 876 117 842 q 232 911 185 911 q 314 876 279 911 q 349 794 349 842 m 626 160 q 590 79 626 115 q 510 46 554 46 q 429 81 464 46 q 394 160 394 114 q 429 242 394 207 q 510 276 463 276 q 592 242 557 276 q 626 160 626 207 z "},"&":{"ha":836,"x_min":51,"x_max":782,"o":"m 782 285 l 751 325 l 607 207 l 390 536 l 492 606 q 614 786 614 689 q 556 931 614 881 q 401 981 497 981 q 258 925 318 981 q 200 788 200 871 q 221 700 200 743 l 263 629 l 318 546 l 161 431 q 51 213 51 329 q 114 56 51 115 q 278 -6 178 -6 q 592 131 422 -6 l 679 0 l 744 0 l 635 165 l 782 285 m 563 786 q 556 749 561 761 l 536 713 q 505 677 522 693 q 468 647 488 661 l 363 576 l 308 658 l 269 721 q 254 788 254 747 q 299 889 254 847 q 403 929 343 929 q 519 893 475 929 q 563 786 563 858 m 564 172 q 521 140 540 153 q 486 117 501 126 q 279 49 379 49 q 157 94 204 49 q 108 213 108 139 q 197 393 108 306 q 251 438 215 411 q 344 504 288 465 l 564 172 z "},"'":{"ha":228,"x_min":85,"x_max":143,"o":"m 143 992 l 85 992 l 99 771 l 129 771 l 143 992 z "},"(":{"ha":256,"x_min":53,"x_max":206,"o":"m 206 -86 q 101 481 101 189 q 107 590 101 529 q 124 724 113 651 q 158 895 138 815 q 206 1047 178 975 l 157 1047 q 53 481 53 769 q 58 364 53 426 q 75 231 64 301 q 87 171 82 194 q 94 133 92 147 q 103 89 100 107 q 110 60 107 71 q 131 -14 119 22 q 157 -86 143 -50 l 206 -86 z "},")":{"ha":269,"x_min":75,"x_max":228,"o":"m 228 481 q 223 602 228 542 q 208 725 218 663 q 124 1047 181 896 l 75 1047 q 179 481 179 761 q 174 367 179 428 q 157 236 168 306 q 123 69 143 149 q 75 -86 103 -11 l 124 -86 q 228 481 228 182 z "},"*":{"ha":401,"x_min":18,"x_max":379,"o":"m 379 774 q 310 836 371 814 q 272 849 296 843 q 213 861 247 854 l 315 893 q 379 949 379 925 q 347 981 376 981 q 206 875 278 965 q 218 913 218 896 l 228 956 l 235 1013 q 199 1065 235 1065 q 161 1013 161 1058 l 169 944 l 190 875 l 125 942 q 49 981 86 981 q 18 946 18 972 q 83 888 18 913 l 129 871 l 183 861 q 18 775 18 819 q 47 742 18 742 q 125 783 92 750 l 190 846 l 164 754 q 160 710 160 743 q 199 658 160 657 q 232 713 232 660 l 225 774 l 206 846 l 274 781 q 347 744 311 744 q 379 774 379 744 z "},"+":{"ha":525,"x_min":92,"x_max":439,"o":"m 439 339 l 439 396 l 297 396 l 297 538 l 233 538 l 233 396 l 92 396 l 92 339 l 233 339 l 233 197 l 297 197 l 297 339 l 439 339 z "},",":{"ha":249,"x_min":64,"x_max":215,"o":"m 215 75 l 167 96 l 64 -131 l 82 -143 l 215 75 z "},"-":{"ha":376,"x_min":25,"x_max":318,"o":"m 318 339 l 318 396 l 25 396 l 25 339 l 318 339 z "},".":{"ha":157,"x_min":25,"x_max":117,"o":"m 117 38 q 71 83 106 83 q 25 38 25 75 q 39 4 26 17 q 71 -8 56 -8 q 117 38 117 -8 z "},"/":{"ha":399,"x_min":32,"x_max":378,"o":"m 378 1013 l 324 1013 l 32 0 l 89 0 l 378 1013 z "},":":{"ha":226,"x_min":71,"x_max":163,"o":"m 163 447 q 117 493 151 493 q 71 447 71 485 q 85 414 72 426 q 117 401 101 401 q 163 447 163 401 m 163 38 q 117 83 151 83 q 71 38 71 75 q 85 4 72 17 q 117 -8 101 -8 q 163 38 163 -8 z "},";":{"ha":283,"x_min":57,"x_max":208,"o":"m 189 447 q 143 493 178 493 q 97 447 97 485 q 111 414 99 426 q 143 401 128 401 q 189 447 189 401 m 208 75 l 160 96 l 57 -131 l 75 -143 l 208 75 z "},"<":{"ha":439,"x_min":44,"x_max":393,"o":"m 393 153 l 393 215 l 146 365 l 393 515 l 393 578 l 44 365 l 393 153 z "},"=":{"ha":411,"x_min":51,"x_max":365,"o":"m 365 424 l 365 481 l 51 481 l 51 424 l 365 424 m 365 254 l 365 310 l 51 310 l 51 254 l 365 254 z "},">":{"ha":439,"x_min":64,"x_max":413,"o":"m 413 365 l 64 578 l 64 515 l 310 365 l 64 215 l 64 153 l 413 365 z "},"?":{"ha":651,"x_min":64,"x_max":600,"o":"m 600 794 q 521 956 600 899 q 342 1006 450 1006 q 64 821 140 1006 l 117 797 q 194 897 157 867 q 342 950 258 950 q 479 914 422 950 q 543 794 543 872 q 494 678 543 735 q 457 643 483 664 q 390 592 431 622 l 272 504 q 175 342 175 432 q 219 243 175 279 q 318 211 264 207 l 358 214 l 390 222 q 439 253 424 238 l 406 299 q 318 269 369 269 q 260 289 283 269 q 236 342 236 308 q 306 464 236 414 l 422 549 q 501 607 472 585 q 538 639 531 629 q 600 794 600 710 m 360 44 q 311 93 351 93 q 263 44 263 85 q 311 -4 271 -4 q 360 44 360 -4 z "},"@":{"ha":828,"x_min":47,"x_max":783,"o":"m 750 146 q 783 290 783 204 q 672 536 783 438 q 415 631 565 631 q 154 528 261 631 q 47 274 47 425 q 139 25 47 125 q 414 -86 238 -86 q 567 -60 500 -86 q 667 1 635 -35 l 640 28 q 535 -33 607 -11 q 417 -50 472 -50 q 176 39 269 -50 q 83 274 83 126 q 181 501 83 410 q 415 594 275 594 q 647 510 553 594 q 747 290 747 422 q 719 172 747 218 q 633 111 685 111 q 589 132 606 111 q 572 207 568 161 l 590 433 l 556 433 l 550 358 q 407 442 513 442 q 269 388 325 442 q 215 251 215 333 q 257 122 215 169 q 379 74 300 74 q 536 153 492 74 q 560 103 540 126 q 628 74 585 74 q 750 146 708 74 m 499 368 q 532 272 532 331 q 490 156 532 201 q 379 111 451 111 q 253 251 253 111 q 297 360 253 315 q 407 406 343 406 q 499 368 465 406 z "},"A":{"ha":879,"x_min":43,"x_max":836,"o":"m 836 0 l 439 1024 l 43 0 l 99 0 l 214 297 l 665 297 l 779 0 l 836 0 m 642 354 l 236 354 l 439 879 l 642 354 z "},"B":{"ha":776,"x_min":106,"x_max":726,"o":"m 726 288 q 664 468 726 394 q 496 563 600 542 q 603 754 603 624 q 531 932 603 868 q 347 992 463 992 l 106 992 l 106 0 l 415 0 q 636 81 546 0 q 726 288 726 160 m 546 754 q 493 624 546 674 q 360 574 440 574 l 161 574 l 161 935 l 351 935 q 490 885 433 935 q 546 754 546 838 m 671 288 q 596 121 671 185 q 417 57 522 57 l 161 57 l 161 517 l 417 517 q 594 456 524 517 q 671 288 671 392 z "},"C":{"ha":975,"x_min":69,"x_max":928,"o":"m 928 107 l 928 172 q 794 88 847 114 q 579 43 703 43 q 253 171 381 43 q 126 496 126 297 q 254 822 126 694 q 579 950 382 950 q 800 907 694 950 q 928 829 869 878 l 928 900 q 810 968 871 944 q 579 1006 707 1006 q 211 863 354 1006 q 69 496 69 721 q 213 128 69 271 q 579 -14 354 -14 q 617 -13 599 -14 q 650 -11 635 -12 q 861 58 783 1 l 928 107 z "},"D":{"ha":956,"x_min":106,"x_max":879,"o":"m 879 497 q 761 842 879 701 q 436 992 636 992 l 106 992 l 106 0 l 436 0 q 763 150 638 0 q 879 497 879 292 m 822 497 q 701 171 822 293 q 436 57 589 57 l 161 57 l 161 936 l 436 936 q 721 803 613 936 q 822 497 822 679 z "},"E":{"ha":657,"x_min":99,"x_max":575,"o":"m 575 0 l 575 57 l 156 57 l 156 513 l 575 513 l 575 574 l 156 574 l 156 935 l 575 935 l 575 992 l 99 992 l 99 0 l 575 0 z "},"F":{"ha":601,"x_min":106,"x_max":536,"o":"m 536 517 l 536 574 l 161 574 l 161 935 l 536 935 l 536 992 l 106 992 l 106 0 l 161 0 l 161 517 l 536 517 z "},"G":{"ha":1142,"x_min":69,"x_max":1090,"o":"m 1090 479 l 700 479 l 700 422 l 1028 422 q 917 183 1014 289 q 579 43 789 43 q 253 171 383 43 q 125 496 125 299 q 254 821 125 692 q 579 950 383 950 q 953 767 819 950 l 999 801 q 579 1006 846 1006 q 213 861 357 1006 q 69 496 69 718 q 213 128 69 271 q 579 -14 354 -14 q 958 138 815 -14 q 1090 479 1090 276 z "},"H":{"ha":854,"x_min":106,"x_max":764,"o":"m 764 0 l 764 992 l 707 992 l 707 574 l 161 574 l 161 992 l 106 992 l 106 0 l 161 0 l 161 517 l 707 517 l 707 0 l 764 0 z "},"I":{"ha":267,"x_min":107,"x_max":163,"o":"m 163 0 l 163 992 l 107 992 l 107 0 l 163 0 z "},"J":{"ha":438,"x_min":42,"x_max":354,"o":"m 354 197 l 354 992 l 297 992 l 297 200 q 193 46 297 46 q 90 110 125 46 l 42 79 q 194 -11 90 -11 q 354 197 354 -11 z "},"K":{"ha":728,"x_min":92,"x_max":714,"o":"m 714 0 l 197 518 l 672 992 l 592 992 l 149 551 l 149 992 l 92 992 l 92 0 l 149 0 l 149 471 l 157 479 l 635 0 l 714 0 z "},"L":{"ha":494,"x_min":106,"x_max":440,"o":"m 440 0 l 440 57 l 161 57 l 161 992 l 106 992 l 106 0 l 440 0 z "},"M":{"ha":1253,"x_min":32,"x_max":1224,"o":"m 1224 0 l 965 1022 l 628 136 l 290 1021 l 32 0 l 89 0 l 301 835 l 628 -25 l 954 833 l 1165 0 l 1224 0 z "},"N":{"ha":993,"x_min":107,"x_max":904,"o":"m 904 -17 l 904 992 l 847 992 l 847 131 l 107 999 l 107 0 l 163 0 l 163 842 l 904 -17 z "},"O":{"ha":1142,"x_min":69,"x_max":1090,"o":"m 1090 496 q 947 864 1090 721 q 579 1006 803 1006 q 211 863 354 1006 q 69 496 69 721 q 213 128 69 271 q 579 -14 354 -14 q 947 129 804 -14 q 1090 496 1090 271 m 1033 496 q 907 168 1033 294 q 579 43 779 43 q 253 171 381 43 q 126 496 126 297 q 254 822 126 694 q 579 950 382 950 q 907 822 779 950 q 1033 496 1033 696 z "},"P":{"ha":681,"x_min":106,"x_max":617,"o":"m 617 746 q 539 925 617 858 q 347 992 461 992 l 106 992 l 106 0 l 161 0 l 161 496 l 347 496 q 539 565 461 496 q 617 746 617 632 m 560 746 q 499 603 560 656 q 346 553 438 553 l 161 553 l 161 935 l 346 935 q 496 888 439 935 q 560 746 560 836 z "},"Q":{"ha":1142,"x_min":81,"x_max":1101,"o":"m 1101 496 q 958 864 1101 721 q 590 1006 814 1006 q 222 863 365 1006 q 81 496 81 721 q 224 128 81 271 q 590 -14 365 -14 q 958 129 815 -14 q 1101 496 1101 271 m 1044 496 q 918 168 1044 294 q 590 43 790 43 q 264 171 392 43 q 138 496 138 297 q 265 822 138 694 q 590 950 390 950 q 918 822 790 950 q 1044 496 1044 696 m 885 -133 l 885 -76 l 592 -76 l 592 -133 l 885 -133 z "},"R":{"ha":672,"x_min":106,"x_max":650,"o":"m 650 0 l 332 496 q 442 510 392 496 q 528 556 492 525 q 585 633 565 586 q 606 746 606 681 q 584 851 606 806 q 526 928 563 897 q 440 976 490 960 q 335 992 390 992 l 106 992 l 106 0 l 161 0 l 161 496 l 268 496 l 583 0 l 650 0 m 547 747 q 492 603 547 653 q 349 553 438 553 l 161 553 l 161 935 l 333 935 q 417 923 378 935 q 485 888 456 911 q 531 830 514 865 q 547 747 547 794 z "},"S":{"ha":692,"x_min":56,"x_max":636,"o":"m 636 257 q 556 454 636 375 q 479 512 526 483 q 367 569 432 540 q 228 644 263 617 q 167 768 167 697 q 225 896 167 847 q 361 942 279 942 q 488 911 439 942 q 554 843 526 889 l 608 867 q 361 997 536 997 q 183 933 256 997 q 110 768 110 871 q 182 603 110 665 q 343 511 225 564 q 446 461 406 483 q 506 421 486 439 q 579 257 579 356 q 517 99 579 153 q 349 46 456 46 q 113 224 161 46 l 56 204 q 349 -11 121 -11 q 476 8 422 -11 q 636 257 636 68 z "},"T":{"ha":613,"x_min":63,"x_max":558,"o":"m 558 935 l 558 992 l 63 992 l 63 935 l 282 935 l 282 0 l 339 0 l 339 935 l 558 935 z "},"U":{"ha":771,"x_min":106,"x_max":681,"o":"m 681 247 l 681 992 l 624 992 l 624 247 q 553 99 624 154 q 392 47 488 47 q 231 97 294 47 q 161 247 161 151 l 161 992 l 106 992 l 106 247 q 190 56 106 126 q 392 -10 271 -10 q 593 54 517 -10 q 681 247 681 126 z "},"V":{"ha":731,"x_min":51,"x_max":690,"o":"m 690 992 l 631 992 l 369 172 l 110 992 l 51 992 l 369 -17 l 690 992 z "},"W":{"ha":1217,"x_min":47,"x_max":1182,"o":"m 1182 992 l 1124 992 l 864 181 l 614 1010 l 363 181 l 103 992 l 47 992 l 365 -14 l 614 818 l 861 -14 l 1182 992 z "},"X":{"ha":736,"x_min":46,"x_max":700,"o":"m 700 0 l 408 508 l 683 992 l 618 992 l 372 563 l 128 992 l 63 992 l 338 513 l 46 0 l 110 0 l 371 460 l 635 0 l 700 0 z "},"Y":{"ha":710,"x_min":46,"x_max":668,"o":"m 668 992 l 603 992 l 356 563 l 111 992 l 46 992 l 328 496 l 328 0 l 385 0 l 385 496 l 668 992 z "},"Z":{"ha":769,"x_min":54,"x_max":725,"o":"m 725 992 l 88 992 l 88 933 l 622 933 l 54 0 l 722 0 l 722 57 l 156 57 l 725 992 z "},"[":{"ha":297,"x_min":82,"x_max":236,"o":"m 236 -64 l 236 -17 l 139 -17 l 139 1000 l 232 1000 l 232 1049 l 82 1049 l 82 -64 l 236 -64 z "},"\\":{"ha":390,"x_min":32,"x_max":371,"o":"m 371 0 l 88 992 l 32 992 l 317 0 l 371 0 z "},"]":{"ha":297,"x_min":85,"x_max":239,"o":"m 239 -64 l 239 1049 l 89 1049 l 89 1000 l 183 1000 l 183 -17 l 85 -17 l 85 -64 l 239 -64 z "},"^":{"ha":489,"x_min":57,"x_max":439,"o":"m 439 524 l 271 914 l 225 914 l 57 524 l 93 524 l 249 810 l 401 524 l 439 524 z "},"_":{"ha":496,"x_min":0,"x_max":511,"o":"m 511 -294 l 511 -244 l 0 -244 l 0 -294 l 511 -294 z "},"`":{"ha":461,"x_min":126,"x_max":343,"o":"m 343 683 l 157 869 l 126 836 l 308 651 l 343 683 z "},"a":{"ha":708,"x_min":49,"x_max":631,"o":"m 631 0 l 631 574 l 574 574 l 574 474 q 344 582 482 582 q 133 496 219 582 q 49 286 49 411 q 135 75 49 161 q 344 -10 219 -10 q 574 99 483 -10 l 574 0 l 631 0 m 585 286 q 514 115 585 186 q 344 46 444 46 q 175 117 246 46 q 104 286 104 188 q 175 457 104 386 q 344 526 244 526 q 514 456 443 526 q 585 286 585 385 z "},"b":{"ha":718,"x_min":76,"x_max":664,"o":"m 664 286 q 578 497 664 411 q 368 582 493 582 q 133 467 224 582 l 133 1028 l 76 1028 l 76 0 l 133 0 l 133 106 q 368 -10 225 -10 q 579 76 493 -10 q 664 286 664 161 m 608 286 q 538 115 608 186 q 368 46 468 46 q 199 117 269 46 q 128 286 128 188 q 199 457 128 386 q 368 526 268 526 q 538 456 467 526 q 608 286 608 385 z "},"c":{"ha":608,"x_min":65,"x_max":538,"o":"m 538 40 l 538 111 q 363 44 463 44 q 189 113 257 44 q 121 286 121 181 q 189 461 121 393 q 363 528 256 528 q 463 510 410 528 l 501 489 l 538 465 l 538 533 q 363 583 472 583 q 150 499 235 583 q 65 286 65 414 q 150 74 65 158 q 363 -11 235 -11 q 538 40 460 -11 z "},"d":{"ha":724,"x_min":60,"x_max":646,"o":"m 646 0 l 646 1028 l 589 1028 l 589 469 q 356 582 493 582 q 144 496 231 582 q 60 286 60 411 q 146 75 60 161 q 356 -10 231 -10 q 589 103 497 -10 l 589 0 l 646 0 m 596 286 q 525 115 596 186 q 356 46 456 46 q 186 117 257 46 q 115 286 115 188 q 186 457 115 386 q 356 526 256 526 q 525 456 454 526 q 596 286 596 385 z "},"e":{"ha":681,"x_min":47,"x_max":640,"o":"m 640 299 q 556 504 640 425 q 344 583 472 583 q 131 499 215 583 q 47 286 47 415 q 132 74 47 158 q 344 -11 215 -11 q 442 3 399 -11 q 608 142 554 39 l 557 165 q 450 64 510 89 q 344 44 403 44 q 165 114 231 44 q 103 299 103 182 l 640 299 m 576 353 l 111 353 q 344 528 167 528 q 494 481 429 528 q 576 353 563 432 z "},"f":{"ha":376,"x_min":60,"x_max":347,"o":"m 347 963 l 347 1019 q 310 1029 326 1029 q 271 1032 301 1032 q 138 900 138 1032 l 138 574 l 60 574 l 60 517 l 138 517 l 138 0 l 194 0 l 194 517 l 331 517 l 331 574 l 194 574 l 194 883 q 272 975 194 975 l 310 971 l 347 963 z "},"g":{"ha":708,"x_min":49,"x_max":631,"o":"m 631 13 l 631 574 l 574 574 l 574 474 q 344 582 482 582 q 133 496 219 582 q 49 286 49 411 q 135 75 49 161 q 344 -10 219 -10 q 574 99 483 -10 l 574 14 q 514 -153 574 -93 q 349 -212 456 -212 q 213 -186 269 -212 q 125 -85 140 -153 l 68 -85 q 349 -269 114 -269 q 553 -192 475 -269 q 631 13 631 -114 m 585 286 q 514 115 585 186 q 344 46 444 46 q 175 117 246 46 q 104 286 104 188 q 175 457 104 386 q 344 526 244 526 q 514 456 443 526 q 585 286 585 385 z "},"h":{"ha":633,"x_min":103,"x_max":557,"o":"m 557 -1 l 557 350 q 331 582 557 582 q 160 497 211 582 l 160 1028 l 103 1028 l 103 0 l 160 0 l 160 374 q 211 485 160 443 q 331 526 261 526 q 500 344 500 526 l 500 -1 l 557 -1 z "},"i":{"ha":256,"x_min":85,"x_max":176,"o":"m 176 722 q 131 768 165 768 q 85 722 85 760 q 99 689 86 701 q 131 676 115 676 q 176 722 176 676 m 158 0 l 158 574 l 101 574 l 101 0 l 158 0 z "},"j":{"ha":257,"x_min":85,"x_max":176,"o":"m 176 722 q 131 768 165 768 q 85 722 85 760 q 99 689 86 701 q 131 676 115 676 q 176 722 176 676 m 160 -250 l 160 574 l 103 574 l 103 -250 l 160 -250 z "},"k":{"ha":579,"x_min":93,"x_max":557,"o":"m 557 0 l 219 338 l 479 596 l 399 596 l 150 349 l 150 1028 l 93 1028 l 93 0 l 150 0 l 150 267 l 182 299 l 482 0 l 557 0 z "},"l":{"ha":267,"x_min":107,"x_max":163,"o":"m 163 0 l 163 1028 l 107 1028 l 107 0 l 163 0 z "},"m":{"ha":893,"x_min":92,"x_max":801,"o":"m 801 0 l 801 396 q 749 533 801 483 q 610 582 696 582 q 447 492 497 582 q 283 582 394 582 q 149 517 190 582 l 149 574 l 92 574 l 92 0 l 149 0 l 149 396 q 188 490 149 456 q 283 526 226 526 q 379 489 339 526 q 418 396 418 454 l 418 0 l 475 0 l 475 396 q 610 526 475 526 q 710 488 675 526 q 744 396 744 449 l 744 0 l 801 0 z "},"n":{"ha":626,"x_min":92,"x_max":535,"o":"m 535 0 l 535 349 q 478 519 535 458 q 314 581 421 581 q 149 504 188 581 l 149 574 l 92 574 l 92 0 l 149 0 l 149 349 q 192 478 149 431 q 314 525 233 525 q 478 343 478 525 l 478 0 l 535 0 z "},"o":{"ha":692,"x_min":49,"x_max":640,"o":"m 640 286 q 554 497 640 411 q 344 583 468 583 q 135 496 219 583 q 49 286 49 410 q 135 75 49 161 q 344 -10 219 -10 q 556 76 469 -10 q 640 286 640 161 m 585 286 q 514 115 585 186 q 344 46 444 46 q 175 117 246 46 q 104 286 104 188 q 176 456 104 383 q 344 528 247 528 q 515 457 446 528 q 585 286 585 388 z "},"p":{"ha":713,"x_min":89,"x_max":678,"o":"m 678 286 q 592 497 678 411 q 382 582 507 582 q 146 465 235 582 l 146 574 l 89 574 l 89 -269 l 146 -269 l 146 107 q 382 -10 239 -10 q 593 76 507 -10 q 678 286 678 161 m 622 286 q 551 115 622 186 q 382 46 482 46 q 213 117 283 46 q 142 286 142 188 q 213 457 142 386 q 382 526 282 526 q 551 456 481 526 q 622 286 622 385 z "},"q":{"ha":697,"x_min":42,"x_max":628,"o":"m 628 -269 l 628 574 l 571 574 l 571 469 q 338 582 476 582 q 126 496 213 582 q 42 286 42 411 q 128 75 42 161 q 338 -10 213 -10 q 571 103 479 -10 l 571 -269 l 628 -269 m 578 286 q 507 115 578 186 q 338 46 438 46 q 168 117 239 46 q 97 286 97 188 q 168 457 97 386 q 338 526 238 526 q 507 456 436 526 q 578 286 578 385 z "},"r":{"ha":431,"x_min":92,"x_max":393,"o":"m 393 536 q 331 571 358 561 q 260 581 303 581 q 196 554 225 581 q 149 496 167 528 l 149 574 l 92 574 l 92 0 l 149 0 l 149 378 q 158 426 149 400 q 182 474 167 453 q 218 510 197 496 q 263 525 239 525 q 315 515 290 525 q 363 489 340 506 l 393 536 z "},"s":{"ha":460,"x_min":40,"x_max":428,"o":"m 428 157 q 368 281 428 235 q 322 306 353 292 q 244 338 292 321 q 165 375 190 356 q 135 439 135 400 q 235 526 135 526 q 356 479 308 526 l 397 515 q 235 582 331 582 q 122 539 165 582 q 78 439 78 497 q 122 335 78 371 q 222 285 153 310 q 285 260 260 271 q 325 242 311 250 q 371 157 371 206 q 240 46 371 46 q 146 72 181 46 q 89 139 113 96 l 40 110 q 240 -11 107 -11 q 374 36 318 -11 q 428 157 428 82 z "},"t":{"ha":347,"x_min":43,"x_max":311,"o":"m 311 517 l 311 574 l 178 574 l 178 825 l 121 825 l 121 574 l 43 574 l 43 517 l 121 517 l 121 0 l 178 0 l 178 517 l 311 517 z "},"u":{"ha":596,"x_min":85,"x_max":513,"o":"m 513 215 l 513 574 l 457 574 l 457 215 q 297 44 457 44 q 178 89 215 44 q 142 215 142 133 l 142 574 l 85 574 l 85 215 q 140 49 85 108 q 297 -11 196 -11 q 457 50 400 -11 q 513 215 513 110 z "},"v":{"ha":604,"x_min":38,"x_max":581,"o":"m 581 574 l 517 574 l 307 117 l 99 574 l 38 574 l 308 -25 l 581 574 z "},"w":{"ha":950,"x_min":40,"x_max":918,"o":"m 918 574 l 854 574 l 663 131 l 479 592 l 294 129 l 101 574 l 40 574 l 297 -25 l 479 433 l 658 -25 l 918 574 z "},"x":{"ha":501,"x_min":22,"x_max":482,"o":"m 482 0 l 288 290 l 478 574 l 411 574 l 253 336 l 93 574 l 26 574 l 218 289 l 22 0 l 90 0 l 253 240 l 415 0 l 482 0 z "},"y":{"ha":618,"x_min":39,"x_max":588,"o":"m 588 574 l 525 574 l 314 121 l 100 574 l 39 574 l 281 53 l 132 -269 l 196 -269 l 588 574 z "},"z":{"ha":635,"x_min":64,"x_max":589,"o":"m 589 574 l 88 574 l 88 519 l 474 519 l 64 0 l 582 0 l 582 57 l 182 57 l 589 574 z "},"{":{"ha":268,"x_min":11,"x_max":247,"o":"m 247 -71 l 247 -19 q 151 3 178 -19 q 125 92 125 24 l 125 368 q 107 435 125 400 q 68 493 90 471 q 125 618 125 542 l 125 872 q 153 964 125 936 q 246 990 179 990 l 246 1042 q 113 1003 151 1042 q 74 872 74 965 l 74 618 q 11 493 74 543 q 53 442 43 461 q 74 368 74 401 l 74 89 q 114 -37 74 -4 q 247 -71 153 -71 z "},"|":{"ha":185,"x_min":75,"x_max":124,"o":"m 124 -64 l 124 1049 l 75 1049 l 75 -64 l 124 -64 z "},"}":{"ha":268,"x_min":21,"x_max":257,"o":"m 257 493 q 215 542 225 525 q 194 618 194 579 l 194 872 q 154 1001 194 961 q 22 1042 114 1042 l 22 990 q 115 964 89 990 q 143 872 143 936 l 143 618 q 158 546 143 576 q 200 493 174 515 q 143 368 143 432 l 143 92 q 117 1 143 24 q 21 -19 89 -19 l 21 -71 q 156 -37 115 -71 q 194 89 194 -4 l 194 368 q 217 443 194 404 q 257 493 233 474 z "},"~":{"ha":596,"x_min":42,"x_max":558,"o":"m 558 499 l 514 536 q 407 486 465 486 l 382 489 l 358 496 l 311 518 l 256 543 q 204 551 231 551 q 42 481 113 551 l 81 440 l 107 464 l 131 479 q 204 496 165 496 q 263 481 233 496 l 297 463 l 354 436 q 410 429 371 429 q 558 499 493 429 z "},"‚":{"ha":219,"x_min":88,"x_max":161,"o":"m 161 21 l 161 183 l 88 183 l 88 83 l 133 83 l 133 21 q 108 -44 133 -18 l 136 -44 q 154 -15 150 -35 q 161 21 161 1 z "},"ƒ":{"ha":825,"x_min":44,"x_max":775,"o":"m 244 736 l 244 0 l 579 0 l 579 57 l 300 57 l 300 992 l 244 992 l 244 889 l 240 893 q 160 928 207 928 q 79 893 114 928 q 44 813 44 858 q 79 732 44 767 q 160 697 114 697 q 240 732 207 697 l 244 736 m 244 829 l 244 799 q 219 754 240 775 q 160 728 193 728 q 100 754 126 728 q 74 814 74 781 q 100 874 74 847 q 160 900 126 900 q 219 874 193 900 q 244 829 240 853 m 143 790 q 152 769 143 778 q 174 760 161 760 q 195 769 186 760 q 204 790 204 778 q 195 812 204 803 q 174 821 186 821 q 152 812 161 821 q 143 790 143 803 m 775 813 q 740 893 775 858 q 660 928 706 928 q 579 893 614 928 q 544 813 544 858 q 579 732 544 767 q 660 697 614 697 q 740 732 706 697 q 775 813 775 767 m 746 814 q 719 754 746 781 q 660 728 693 728 q 600 754 626 728 q 574 814 574 781 q 600 874 574 847 q 660 900 626 900 q 719 874 693 900 q 746 814 746 847 m 644 786 q 653 765 644 774 q 675 756 663 756 q 697 765 688 756 q 706 786 706 774 q 697 808 706 799 q 675 817 688 817 q 653 808 663 817 q 644 786 644 799 m 494 -207 l 469 -176 q 351 -228 418 -228 q 225 -174 279 -228 l 196 -207 q 346 -268 253 -268 q 494 -207 442 -268 z "},"„":{"ha":418,"x_min":92,"x_max":325,"o":"m 325 21 l 325 183 l 251 183 l 251 83 l 297 83 l 297 21 q 272 -44 297 -18 l 300 -44 q 318 -15 314 -35 q 325 21 325 1 m 165 21 l 165 183 l 92 183 l 92 83 l 138 83 l 138 21 q 113 -44 138 -18 l 140 -44 q 158 -15 154 -35 q 165 21 165 1 z "},"…":{"ha":581,"x_min":-6,"x_max":483,"o":"m 86 38 q 40 83 75 83 q -6 38 -6 75 q 8 4 -4 17 q 40 -8 25 -8 q 86 38 86 -8 m 285 38 q 239 83 274 83 q 193 38 193 75 q 207 4 194 17 q 239 -8 224 -8 q 285 38 285 -8 m 483 38 q 438 83 472 83 q 392 38 392 75 q 406 4 393 17 q 438 -8 422 -8 q 483 38 483 -8 z "},"†":{"ha":340,"x_min":60,"x_max":285,"o":"m 285 760 l 285 797 l 192 797 l 192 1022 l 153 1022 l 153 797 l 60 797 l 60 760 l 153 760 l 153 214 l 192 214 l 192 760 l 285 760 z "},"‡":{"ha":340,"x_min":68,"x_max":293,"o":"m 293 507 l 293 546 l 200 546 l 200 753 l 293 753 l 293 790 l 200 790 l 200 1022 l 161 1022 l 161 790 l 68 790 l 68 753 l 161 753 l 161 546 l 68 546 l 68 507 l 161 507 l 161 93 l 200 93 l 200 507 l 293 507 z "},"ˆ":{"ha":525,"x_min":100,"x_max":433,"o":"m 433 689 l 267 856 l 100 689 l 128 658 l 267 796 l 406 658 l 433 689 z "},"‰":{"ha":1149,"x_min":29,"x_max":1108,"o":"m 1108 160 q 1057 282 1108 231 q 935 333 1006 333 q 813 282 864 333 q 763 160 763 229 q 815 40 763 93 q 935 -11 867 -11 q 1058 39 1006 -11 q 1108 160 1108 86 m 414 794 q 363 917 414 865 q 240 968 311 968 q 118 917 169 968 q 68 794 68 864 q 121 675 68 728 q 240 624 172 624 q 364 674 311 624 q 414 794 414 721 m 829 992 l 760 992 l 29 0 l 99 0 l 829 992 m 692 160 q 640 282 692 231 q 518 333 589 333 q 396 282 447 333 q 346 160 346 229 q 399 40 346 93 q 518 -11 450 -11 q 642 39 589 -11 q 692 160 692 86 m 1051 160 q 1015 79 1051 115 q 935 46 979 46 q 853 78 889 46 q 819 160 819 115 q 854 242 819 207 q 935 276 888 276 q 1017 242 982 276 q 1051 160 1051 207 m 357 794 q 322 714 357 749 q 240 681 282 681 q 160 715 194 681 q 125 794 125 749 q 160 876 125 842 q 240 911 193 911 q 322 876 288 911 q 357 794 357 842 m 635 160 q 599 79 635 115 q 518 46 563 46 q 436 78 472 46 q 403 160 403 115 q 438 242 403 207 q 518 276 471 276 q 600 242 565 276 q 635 160 635 207 z "},"Š":{"ha":692,"x_min":56,"x_max":636,"o":"m 533 1193 l 504 1224 l 365 1086 l 226 1224 l 197 1193 l 365 1026 l 533 1193 m 636 257 q 556 454 636 375 q 479 512 526 483 q 367 569 432 540 q 228 644 263 617 q 167 768 167 697 q 225 896 167 847 q 361 942 279 942 q 488 911 439 942 q 554 843 526 889 l 608 867 q 361 997 536 997 q 183 933 256 997 q 110 768 110 871 q 182 603 110 665 q 343 511 225 564 q 446 461 406 483 q 506 421 486 439 q 579 257 579 356 q 517 99 579 153 q 349 46 456 46 q 113 224 161 46 l 56 204 q 349 -11 121 -11 q 476 8 422 -11 q 636 257 636 68 z "},"‹":{"ha":390,"x_min":36,"x_max":326,"o":"m 326 588 l 297 617 l 36 354 l 292 97 l 321 126 l 92 354 l 326 588 z "},"Œ":{"ha":1594,"x_min":69,"x_max":1510,"o":"m 1510 0 l 1510 57 l 1090 57 l 1090 513 l 1510 513 l 1510 574 l 1090 574 l 1090 935 l 1510 935 l 1510 992 l 1033 992 l 1033 743 q 844 940 968 871 q 579 1006 726 1006 q 211 863 354 1006 q 69 496 69 721 q 213 128 69 271 q 579 -14 354 -14 q 844 51 731 -14 q 1033 249 965 119 l 1033 0 l 1510 0 m 1033 496 q 907 168 1033 294 q 579 43 779 43 q 253 171 381 43 q 126 496 126 297 q 254 822 126 694 q 579 950 382 950 q 907 822 779 950 q 1033 496 1033 696 z "},"‘":{"ha":226,"x_min":79,"x_max":153,"o":"m 153 783 l 153 883 l 107 883 l 107 946 q 132 1011 107 983 l 104 1011 q 79 946 79 992 l 79 783 l 153 783 z "},"’":{"ha":219,"x_min":88,"x_max":161,"o":"m 161 860 l 161 1022 l 88 1022 l 88 922 l 133 922 l 133 860 q 108 794 133 821 l 136 794 q 161 860 161 825 z "},"“":{"ha":397,"x_min":85,"x_max":318,"o":"m 318 783 l 318 883 l 272 883 l 272 946 q 297 1011 272 983 l 269 1011 q 244 946 244 992 l 244 783 l 318 783 m 158 783 l 158 883 l 113 883 l 113 946 q 138 1011 113 983 l 110 1011 q 85 946 85 992 l 85 783 l 158 783 z "},"”":{"ha":418,"x_min":92,"x_max":325,"o":"m 325 860 l 325 1022 l 251 1022 l 251 922 l 297 922 l 297 860 q 272 794 297 821 l 300 794 q 325 860 325 825 m 165 860 l 165 1022 l 92 1022 l 92 922 l 138 922 l 138 860 q 113 794 138 821 l 140 794 q 165 860 165 825 z "},"•":{"ha":408,"x_min":67,"x_max":297,"o":"m 297 456 q 264 538 297 501 q 182 571 231 571 q 100 538 135 571 q 67 456 67 501 q 100 374 67 407 q 182 340 135 340 q 264 374 231 340 q 297 456 297 407 z "},"–":{"ha":517,"x_min":58,"x_max":463,"o":"m 463 339 l 463 396 l 58 396 l 58 339 l 463 339 z "},"—":{"ha":857,"x_min":72,"x_max":794,"o":"m 794 339 l 794 396 l 72 396 l 72 339 l 794 339 z "},"˜":{"ha":588,"x_min":78,"x_max":524,"o":"m 524 743 l 483 774 q 443 740 454 744 l 426 735 l 394 735 l 346 740 l 306 757 q 293 764 299 761 q 282 769 288 767 q 210 783 244 783 q 78 713 117 783 l 117 682 q 203 728 151 728 q 253 719 233 728 l 293 703 q 400 678 335 678 q 475 697 443 678 l 497 715 l 524 743 z "},"™":{"ha":468,"x_min":54,"x_max":438,"o":"m 438 760 l 392 983 l 319 778 l 249 983 l 199 760 l 208 760 l 250 951 l 319 749 l 389 951 l 428 760 l 438 760 m 206 972 l 206 981 l 54 981 l 54 972 l 125 972 l 125 758 l 135 758 l 135 972 l 206 972 z "},"š":{"ha":460,"x_min":40,"x_max":428,"o":"m 404 776 l 375 807 l 236 669 l 97 807 l 68 776 l 236 610 l 404 776 m 428 157 q 368 281 428 235 q 322 306 353 292 q 244 338 292 321 q 165 375 190 356 q 135 439 135 400 q 235 526 135 526 q 356 479 308 526 l 397 515 q 235 582 331 582 q 122 539 165 582 q 78 439 78 497 q 122 335 78 371 q 222 285 153 310 q 285 260 260 271 q 325 242 311 250 q 371 157 371 206 q 240 46 371 46 q 146 72 181 46 q 89 139 113 96 l 40 110 q 240 -11 107 -11 q 374 36 318 -11 q 428 157 428 82 z "},"›":{"ha":390,"x_min":63,"x_max":353,"o":"m 353 354 l 90 617 l 63 588 l 296 354 l 68 126 l 96 97 l 353 354 z "},"œ":{"ha":1226,"x_min":49,"x_max":1179,"o":"m 1179 299 q 1094 503 1179 426 q 883 581 1010 581 q 719 536 793 581 q 611 413 646 492 q 500 536 572 489 q 344 582 429 582 q 133 496 219 582 q 49 286 49 411 q 135 75 49 161 q 344 -10 219 -10 q 504 36 431 -10 q 611 160 575 81 q 721 33 649 79 q 883 -11 794 -11 q 981 3 938 -11 q 1147 142 1093 39 l 1096 165 q 989 64 1049 89 q 883 44 942 44 q 704 114 769 44 q 642 299 642 182 l 1179 299 m 1115 353 l 650 353 q 883 525 706 525 q 1051 464 986 525 q 1115 353 1101 417 m 585 286 q 514 115 585 186 q 344 46 444 46 q 175 117 246 46 q 104 286 104 188 q 175 457 104 386 q 344 526 244 526 q 514 456 443 526 q 585 286 585 385 z "},"Ÿ":{"ha":710,"x_min":46,"x_max":668,"o":"m 492 1106 q 446 1151 481 1151 q 400 1106 400 1143 q 414 1072 401 1085 q 446 1060 431 1060 q 492 1106 492 1060 m 301 1106 q 256 1151 290 1151 q 210 1106 210 1143 q 224 1072 211 1085 q 256 1060 240 1060 q 301 1106 301 1060 m 668 992 l 603 992 l 356 563 l 111 992 l 46 992 l 328 496 l 328 0 l 385 0 l 385 496 l 668 992 z "},"¡":{"ha":283,"x_min":93,"x_max":193,"o":"m 193 844 q 178 879 189 868 q 143 894 163 894 q 93 844 93 886 q 143 794 93 794 q 193 844 193 803 m 172 -103 l 172 683 l 117 683 l 117 -103 l 172 -103 z "},"¢":{"ha":588,"x_min":53,"x_max":515,"o":"m 515 651 l 515 719 q 443 760 485 747 q 360 775 406 775 l 360 843 l 301 843 l 301 774 q 119 681 188 760 q 53 488 53 603 q 115 306 53 382 q 301 210 192 210 l 301 128 l 360 128 l 360 208 l 404 213 l 446 222 q 513 256 488 239 l 513 319 q 360 263 431 263 l 360 715 q 443 696 397 715 l 479 675 l 515 651 m 301 264 q 164 339 215 278 q 114 488 114 399 q 165 639 114 575 q 301 714 218 701 l 301 264 z "},"£":{"ha":658,"x_min":54,"x_max":622,"o":"m 622 69 l 585 106 q 461 47 526 47 q 407 56 432 47 l 354 79 q 304 104 335 92 l 281 114 l 260 115 q 332 217 303 158 q 360 339 360 276 l 515 339 l 515 399 l 357 399 q 310 500 343 450 l 238 608 q 172 742 183 689 l 168 786 q 350 943 168 943 q 475 911 429 943 q 532 800 532 874 l 588 800 q 517 951 588 899 q 350 999 453 999 q 178 946 246 999 q 107 786 107 889 q 131 679 107 738 l 186 581 l 238 510 q 297 399 289 440 l 153 399 l 153 339 l 301 339 q 188 113 301 226 q 114 89 154 113 q 54 38 75 67 l 90 -1 q 147 42 125 32 q 226 58 190 60 l 258 56 l 290 47 q 329 31 308 43 q 461 -8 394 -8 q 558 17 514 -8 q 593 43 578 31 q 622 69 608 56 z "},"€":{"ha":975,"x_min":1,"x_max":942,"o":"m 924 379 l 924 435 l 143 435 q 141 465 142 450 q 140 496 140 481 q 141 523 140 510 q 143 549 142 536 l 924 549 l 924 606 l 151 606 q 268 822 176 732 q 593 950 393 950 q 814 907 708 950 q 942 829 883 878 l 942 900 q 824 968 885 944 q 593 1006 721 1006 q 225 863 368 1006 q 93 606 119 757 l 1 606 l 1 549 l 85 549 q 83 522 83 536 q 83 496 83 510 q 84 465 83 481 q 86 435 85 450 l 1 435 l 1 379 l 94 379 q 226 128 121 233 q 593 -14 368 -14 q 631 -13 613 -14 q 664 -11 649 -12 q 875 58 797 1 l 942 107 l 942 172 q 808 88 861 114 q 593 43 717 43 q 267 171 394 43 q 153 379 181 257 l 924 379 z "},"¥":{"ha":714,"x_min":46,"x_max":668,"o":"m 668 992 l 603 992 l 356 561 l 111 992 l 46 992 l 324 503 l 188 503 l 188 446 l 328 446 l 328 383 l 188 383 l 188 326 l 328 326 l 328 0 l 385 0 l 385 326 l 526 326 l 526 383 l 385 383 l 385 446 l 526 446 l 526 503 l 389 503 l 668 992 z "},"¦":{"ha":185,"x_min":75,"x_max":124,"o":"m 124 606 l 124 1049 l 75 1049 l 75 606 l 124 606 m 124 0 l 124 454 l 75 454 l 75 0 l 124 0 z "},"§":{"ha":528,"x_min":51,"x_max":481,"o":"m 481 483 q 267 706 481 671 q 139 840 139 726 q 174 925 139 890 q 258 958 208 958 q 394 867 344 958 l 436 894 q 258 1011 378 1011 q 131 963 183 1011 q 81 838 81 914 q 179 678 81 735 q 96 617 119 646 q 51 479 51 564 q 108 339 51 399 q 246 271 164 282 q 393 111 393 253 q 354 19 393 53 q 258 -14 317 -14 q 167 17 197 -14 q 117 93 135 49 l 65 69 q 139 -32 90 4 q 258 -68 188 -68 q 400 -19 343 -68 q 456 111 456 28 q 361 292 456 239 q 481 483 481 361 m 418 479 q 375 376 418 414 q 267 340 332 340 q 160 381 204 340 q 115 486 115 421 q 154 590 115 550 q 256 632 193 632 q 418 479 418 632 z "},"¨":{"ha":596,"x_min":164,"x_max":446,"o":"m 446 722 q 400 768 435 768 q 354 722 354 760 q 368 689 356 701 q 400 676 385 676 q 446 722 446 676 m 256 722 q 210 768 244 768 q 164 722 164 760 q 178 689 165 701 q 210 676 194 676 q 256 722 256 676 z "},"©":{"ha":817,"x_min":47,"x_max":778,"o":"m 778 540 q 671 800 778 693 q 413 906 563 906 q 153 799 260 906 q 47 540 47 693 q 154 281 47 388 q 413 175 260 175 q 672 282 565 175 q 778 540 778 390 m 751 542 q 653 301 751 400 q 414 204 556 204 q 174 303 272 204 q 76 542 76 400 q 175 782 76 683 q 414 879 272 879 q 654 781 556 879 q 751 542 751 683 m 544 428 l 544 461 q 413 407 496 407 q 299 449 338 407 q 260 547 260 489 q 304 649 260 611 q 413 686 347 686 l 453 682 q 492 669 471 681 l 519 656 l 544 639 l 544 672 l 517 689 l 493 700 q 413 714 465 714 q 283 668 335 714 q 232 547 232 625 q 285 425 232 474 q 413 379 336 379 q 544 428 496 379 z "},"ª":{"ha":518,"x_min":69,"x_max":464,"o":"m 429 589 l 429 933 l 394 933 l 394 874 q 257 939 342 939 q 131 888 182 939 q 81 761 81 835 q 132 635 81 686 q 257 583 182 583 q 394 649 344 583 l 394 589 l 429 589 m 464 467 l 464 507 l 69 507 l 69 467 l 464 467 m 401 761 q 358 660 401 703 q 257 617 315 617 q 156 660 199 617 q 114 761 114 703 q 157 863 114 819 q 257 906 199 906 q 358 863 315 906 q 401 761 401 819 z "},"«":{"ha":610,"x_min":53,"x_max":544,"o":"m 544 588 l 515 617 l 254 354 l 510 97 l 539 126 l 310 354 l 544 588 m 343 588 l 315 617 l 53 354 l 308 97 l 338 126 l 110 354 l 343 588 z "},"¬":{"ha":544,"x_min":89,"x_max":442,"o":"m 285 582 l 285 1029 l 201 1029 l 185 1003 l 260 1003 l 260 582 l 285 582 m 442 492 l 442 528 l 89 528 l 89 492 l 442 492 m 400 114 q 314 232 400 200 q 365 272 344 238 q 383 335 383 300 q 351 417 383 385 q 269 449 319 449 q 186 417 218 449 q 154 335 154 385 q 174 271 154 303 q 222 232 192 242 q 139 114 139 200 q 174 24 139 58 q 269 -12 210 -12 q 364 22 328 -12 q 400 114 400 58 m 358 335 q 332 271 358 297 q 269 246 307 246 q 206 272 232 246 q 179 335 179 297 q 206 399 179 372 q 269 424 232 424 q 333 397 307 424 q 358 335 358 372 m 375 114 q 344 42 375 71 q 269 13 313 13 q 194 42 225 13 q 164 114 164 68 q 196 188 164 156 q 269 218 226 218 q 344 188 314 218 q 375 114 375 157 z "},"®":{"ha":554,"x_min":57,"x_max":496,"o":"m 496 749 q 432 904 496 840 q 276 968 368 968 q 121 904 185 968 q 57 749 57 840 q 121 593 57 657 q 276 529 185 529 q 432 593 368 529 q 496 749 496 657 m 475 749 q 415 610 475 669 q 276 550 356 550 q 138 610 197 550 q 78 749 78 669 q 138 888 78 828 q 276 947 197 947 q 415 888 356 947 q 475 749 475 828 m 368 628 l 286 744 l 297 744 q 368 813 368 744 q 347 863 368 843 q 297 881 329 881 l 200 881 l 200 628 l 219 628 l 219 744 l 263 744 l 343 628 l 368 628 m 349 813 q 299 764 349 764 l 219 764 l 219 861 l 299 861 q 349 813 349 861 z "},"¯":{"ha":546,"x_min":79,"x_max":475,"o":"m 475 658 l 475 708 l 79 708 l 79 658 l 475 658 z "},"°":{"ha":294,"x_min":32,"x_max":263,"o":"m 263 854 q 228 935 263 900 q 147 969 193 969 q 67 935 101 969 q 32 854 32 900 q 67 774 32 808 q 147 739 101 739 q 228 774 193 739 q 263 854 263 808 m 233 856 q 207 796 233 822 q 147 769 181 769 q 88 796 114 769 q 61 856 61 822 q 88 915 61 889 q 147 942 114 942 q 207 915 181 942 q 233 856 233 889 z "},"±":{"ha":539,"x_min":93,"x_max":450,"o":"m 440 449 l 440 506 l 299 506 l 299 647 l 235 647 l 235 506 l 93 506 l 93 449 l 235 449 l 235 307 l 299 307 l 299 449 l 440 449 m 450 197 l 450 254 l 93 254 l 93 197 l 450 197 z "},"²":{"ha":544,"x_min":142,"x_max":413,"o":"m 413 911 q 374 997 413 964 q 282 1031 333 1031 q 196 1000 235 1031 q 151 925 158 972 l 179 925 q 282 1006 206 1006 q 354 978 322 1006 q 386 911 386 950 q 360 833 386 874 l 142 581 l 411 581 l 411 606 l 197 606 l 326 751 q 386 824 375 807 q 413 911 413 868 z "},"³":{"ha":544,"x_min":154,"x_max":404,"o":"m 404 704 q 317 824 404 799 q 400 926 400 846 q 365 1010 400 979 q 281 1040 331 1040 q 199 1011 232 1040 q 161 935 165 985 l 190 935 q 281 1014 203 1014 q 344 989 319 1014 q 369 926 369 965 l 364 892 l 347 865 q 283 842 324 842 l 257 842 l 257 806 l 283 806 l 313 800 q 340 783 325 796 q 376 704 376 756 q 347 633 376 663 q 276 606 317 606 q 215 629 242 606 q 182 678 190 653 l 154 678 q 276 581 181 581 q 368 615 333 581 q 404 704 404 649 z "},"´":{"ha":567,"x_min":217,"x_max":435,"o":"m 435 836 l 401 869 l 217 685 l 250 651 l 435 836 z "},"µ":{"ha":1090,"x_min":85,"x_max":971,"o":"m 686 736 q 601 926 686 854 q 399 1000 517 1000 q 178 908 261 1000 q 106 765 115 838 l 168 765 q 222 872 183 829 q 399 944 286 944 q 560 885 490 944 q 629 736 629 824 q 571 563 629 646 l 85 0 l 685 0 l 685 57 l 210 57 l 494 379 q 558 453 533 424 q 596 499 583 483 q 686 736 686 615 m 471 618 q 436 699 471 664 q 356 733 401 733 q 275 699 310 733 q 240 618 240 664 q 275 538 240 572 q 356 503 310 503 q 436 538 401 503 q 471 618 471 572 m 442 619 q 415 560 442 586 q 356 533 389 533 q 296 560 322 533 q 269 619 269 586 q 296 679 269 653 q 356 706 322 706 q 415 679 389 706 q 442 619 442 653 m 971 618 q 936 699 971 664 q 856 733 901 733 q 775 699 810 733 q 740 618 740 664 q 775 538 740 572 q 856 503 810 503 q 936 538 901 503 q 971 618 971 572 m 942 619 q 915 560 942 586 q 856 533 889 533 q 796 560 822 533 q 769 619 769 586 q 796 679 769 653 q 856 706 822 706 q 915 679 889 706 q 942 619 942 653 m 339 596 q 348 574 339 583 q 369 565 357 565 q 391 574 382 565 q 400 596 400 583 q 391 617 400 608 q 369 626 382 626 q 348 617 357 626 q 339 596 339 608 m 840 592 q 849 570 840 579 q 871 561 858 561 q 892 570 883 561 q 901 592 901 579 q 892 613 901 604 q 871 622 883 622 q 849 613 858 622 q 840 592 840 604 m 814 -179 l 789 -149 q 671 -200 738 -200 q 544 -146 599 -200 l 515 -179 q 665 -240 572 -240 q 814 -179 761 -240 z "},"¶":{"ha":701,"x_min":68,"x_max":619,"o":"m 619 -85 l 619 992 l 563 992 l 563 -85 l 619 -85 m 488 -85 l 488 992 l 338 992 q 147 925 222 992 q 68 743 68 854 q 144 563 68 629 q 338 496 221 496 l 431 496 l 431 -85 l 488 -85 z "},"·":{"ha":383,"x_min":96,"x_max":188,"o":"m 188 450 q 142 496 176 496 q 96 450 96 488 q 110 417 97 429 q 142 404 126 404 q 188 450 188 404 z "},"¸":{"ha":361,"x_min":100,"x_max":271,"o":"m 271 -131 q 218 -57 271 -74 l 238 0 l 175 0 l 153 -68 q 203 -117 203 -87 q 164 -150 203 -150 l 131 -140 q 113 -130 121 -135 q 100 -119 106 -125 l 100 -175 q 190 -210 139 -210 q 249 -187 226 -210 q 271 -131 271 -165 z "},"¹":{"ha":544,"x_min":204,"x_max":304,"o":"m 304 582 l 304 1029 l 221 1029 l 204 1003 l 279 1003 l 279 582 l 304 582 z "},"º":{"ha":518,"x_min":64,"x_max":456,"o":"m 438 767 q 386 893 438 842 q 260 944 335 944 q 133 893 185 944 q 82 767 82 842 q 133 640 82 692 q 260 589 185 589 q 386 640 335 589 q 438 767 438 692 m 456 467 l 456 507 l 64 507 l 64 467 l 456 467 m 404 767 q 361 665 404 708 q 260 622 318 622 q 158 665 201 622 q 115 767 115 708 q 158 868 115 825 q 260 911 201 911 q 361 868 318 911 q 404 767 404 825 z "},"»":{"ha":610,"x_min":75,"x_max":574,"o":"m 574 354 l 311 617 l 283 588 l 517 354 l 289 126 l 318 97 l 574 354 m 365 354 l 103 617 l 75 588 l 308 354 l 81 126 l 110 97 l 365 354 z "},"¼":{"ha":544,"x_min":106,"x_max":463,"o":"m 304 582 l 304 1029 l 221 1029 l 204 1003 l 279 1003 l 279 582 l 304 582 m 463 492 l 463 528 l 110 528 l 110 492 l 463 492 m 400 83 l 400 108 l 361 108 l 361 451 l 106 83 l 335 83 l 335 -1 l 361 -1 l 361 83 l 400 83 m 335 108 l 151 108 l 335 368 l 335 108 z "},"½":{"ha":544,"x_min":113,"x_max":465,"o":"m 313 582 l 313 1029 l 229 1029 l 213 1003 l 288 1003 l 288 582 l 313 582 m 465 492 l 465 528 l 113 528 l 113 492 l 465 492 m 418 331 q 379 417 418 383 q 288 450 339 450 q 201 419 240 450 q 157 344 164 392 l 185 344 q 288 425 211 425 q 360 397 328 425 q 392 331 392 369 q 365 253 392 293 l 147 0 l 417 0 l 417 25 l 203 25 l 332 171 q 392 243 381 226 q 418 331 418 288 z "},"¾":{"ha":544,"x_min":100,"x_max":454,"o":"m 404 704 q 317 824 404 799 q 400 926 400 846 q 365 1010 400 979 q 281 1040 331 1040 q 199 1011 232 1040 q 161 935 165 985 l 190 935 q 281 1014 203 1014 q 344 989 319 1014 q 369 926 369 965 l 364 892 l 347 865 q 283 842 324 842 l 257 842 l 257 806 l 283 806 l 313 800 q 340 783 325 796 q 376 704 376 756 q 347 633 376 663 q 276 606 317 606 q 215 629 242 606 q 182 678 190 653 l 154 678 q 276 581 181 581 q 368 615 333 581 q 404 704 404 649 m 454 492 l 454 528 l 100 528 l 100 492 l 454 492 m 406 83 l 406 108 l 367 108 l 367 451 l 111 83 l 340 83 l 340 -1 l 367 -1 l 367 83 l 406 83 m 340 108 l 157 108 l 340 368 l 340 108 z "},"¿":{"ha":651,"x_min":51,"x_max":588,"o":"m 389 850 q 340 899 381 899 q 292 850 292 890 q 340 801 300 801 q 389 850 389 810 m 588 74 l 535 97 q 496 39 515 64 q 457 -3 476 14 q 310 -56 393 -56 q 174 -19 229 -56 q 108 100 108 22 q 157 217 108 160 q 194 251 168 231 q 261 303 221 272 l 379 390 q 476 553 476 463 q 435 649 476 613 q 333 683 393 683 q 213 642 254 683 l 246 596 q 283 618 264 614 q 333 625 300 625 q 392 606 368 625 q 415 553 415 586 q 346 431 415 481 l 229 346 q 150 288 179 310 q 114 256 121 265 q 51 100 51 185 q 129 -62 51 -8 q 310 -111 196 -111 q 588 74 511 -111 z "},"À":{"ha":879,"x_min":43,"x_max":836,"o":"m 476 1072 l 308 1240 l 281 1210 l 444 1044 l 476 1072 m 836 0 l 439 1024 l 43 0 l 99 0 l 214 297 l 665 297 l 779 0 l 836 0 m 642 354 l 236 354 l 439 879 l 642 354 z "},"Á":{"ha":879,"x_min":43,"x_max":836,"o":"m 592 1201 l 564 1229 l 410 1074 l 436 1047 l 592 1201 m 836 0 l 439 1024 l 43 0 l 99 0 l 214 297 l 665 297 l 779 0 l 836 0 m 642 354 l 236 354 l 439 879 l 642 354 z "},"Â":{"ha":879,"x_min":43,"x_max":836,"o":"m 610 1051 l 442 1219 l 274 1051 l 303 1022 l 442 1160 l 581 1022 l 610 1051 m 836 0 l 439 1024 l 43 0 l 99 0 l 214 297 l 665 297 l 779 0 l 836 0 m 642 354 l 236 354 l 439 879 l 642 354 z "},"Ã":{"ha":872,"x_min":43,"x_max":836,"o":"m 661 1111 l 621 1142 q 581 1108 592 1113 l 564 1103 l 532 1103 l 483 1108 l 443 1125 q 431 1132 436 1129 q 419 1138 425 1135 q 347 1151 382 1151 q 215 1081 254 1151 l 254 1050 q 340 1096 289 1096 q 390 1088 371 1096 l 431 1071 q 538 1046 472 1046 q 613 1065 581 1046 l 635 1083 l 661 1111 m 836 0 l 439 1024 l 43 0 l 99 0 l 214 297 l 665 297 l 779 0 l 836 0 m 642 354 l 236 354 l 439 879 l 642 354 z "},"Ä":{"ha":872,"x_min":43,"x_max":836,"o":"m 575 1106 q 529 1151 564 1151 q 483 1106 483 1143 q 497 1072 485 1085 q 529 1060 514 1060 q 575 1106 575 1060 m 385 1106 q 339 1151 374 1151 q 293 1106 293 1143 q 307 1072 294 1085 q 339 1060 324 1060 q 385 1106 385 1060 m 836 0 l 439 1024 l 43 0 l 99 0 l 214 297 l 665 297 l 779 0 l 836 0 m 642 354 l 236 354 l 439 879 l 642 354 z "},"Å":{"ha":879,"x_min":43,"x_max":836,"o":"m 533 1129 q 506 1196 533 1168 q 439 1224 478 1224 q 372 1196 400 1224 q 344 1129 344 1168 q 372 1063 344 1090 q 439 1035 400 1035 q 506 1063 478 1035 q 533 1129 533 1090 m 836 0 l 439 1024 l 43 0 l 99 0 l 214 297 l 665 297 l 779 0 l 836 0 m 508 1131 q 486 1082 508 1104 q 439 1060 465 1060 q 389 1081 407 1060 q 369 1131 369 1100 q 390 1181 369 1160 q 439 1200 410 1200 q 488 1179 467 1200 q 508 1131 508 1158 m 642 354 l 236 354 l 439 879 l 642 354 z "},"Æ":{"ha":1028,"x_min":40,"x_max":953,"o":"m 953 0 l 953 57 l 532 57 l 532 517 l 953 517 l 953 574 l 533 574 l 533 935 l 953 935 l 953 992 l 482 992 l 40 0 l 96 0 l 299 454 l 475 454 l 475 0 l 953 0 m 475 510 l 325 510 l 475 847 l 475 510 z "},"Ç":{"ha":975,"x_min":69,"x_max":928,"o":"m 928 107 l 928 172 q 794 88 847 114 q 579 43 703 43 q 253 171 381 43 q 126 496 126 297 q 254 822 126 694 q 579 950 382 950 q 800 907 694 950 q 928 829 869 878 l 928 900 q 810 968 871 944 q 579 1006 707 1006 q 211 863 354 1006 q 69 496 69 721 q 203 139 69 278 q 540 -14 351 -14 l 518 -65 q 550 -86 536 -69 q 564 -118 564 -103 q 525 -151 564 -151 q 469 -125 492 -151 l 447 -171 q 542 -210 486 -210 q 626 -126 626 -210 q 583 -53 626 -83 l 599 -14 q 814 29 722 -14 l 860 58 l 928 107 z "},"È":{"ha":657,"x_min":99,"x_max":575,"o":"m 368 1072 l 201 1240 l 172 1210 l 338 1044 l 368 1072 m 575 0 l 575 57 l 156 57 l 156 513 l 575 513 l 575 574 l 156 574 l 156 935 l 575 935 l 575 992 l 99 992 l 99 0 l 575 0 z "},"É":{"ha":657,"x_min":99,"x_max":575,"o":"m 492 1201 l 463 1232 l 307 1071 l 336 1047 l 492 1201 m 575 0 l 575 57 l 156 57 l 156 513 l 575 513 l 575 574 l 156 574 l 156 935 l 575 935 l 575 992 l 99 992 l 99 0 l 575 0 z "},"Ê":{"ha":657,"x_min":99,"x_max":575,"o":"m 510 1079 l 343 1247 l 175 1079 l 204 1050 l 343 1188 l 482 1050 l 510 1079 m 575 0 l 575 57 l 156 57 l 156 513 l 575 513 l 575 574 l 156 574 l 156 935 l 575 935 l 575 992 l 99 992 l 99 0 l 575 0 z "},"Ë":{"ha":657,"x_min":99,"x_max":575,"o":"m 481 1106 q 435 1151 469 1151 q 389 1106 389 1143 q 403 1072 390 1085 q 435 1060 419 1060 q 481 1106 481 1060 m 290 1106 q 244 1151 279 1151 q 199 1106 199 1143 q 213 1072 200 1085 q 244 1060 229 1060 q 290 1106 290 1060 m 575 0 l 575 57 l 156 57 l 156 513 l 575 513 l 575 574 l 156 574 l 156 935 l 575 935 l 575 992 l 99 992 l 99 0 l 575 0 z "},"Ì":{"ha":267,"x_min":-17,"x_max":179,"o":"m 179 1072 l 13 1240 l -17 1210 l 149 1044 l 179 1072 m 163 0 l 163 992 l 107 992 l 107 0 l 163 0 z "},"Í":{"ha":267,"x_min":97,"x_max":279,"o":"m 279 1201 l 253 1229 l 97 1074 l 125 1047 l 279 1201 m 163 0 l 163 992 l 107 992 l 107 0 l 163 0 z "},"Î":{"ha":267,"x_min":-36,"x_max":300,"o":"m 300 1051 l 133 1219 l -36 1051 l -6 1022 l 133 1160 l 272 1022 l 300 1051 m 163 0 l 163 992 l 107 992 l 107 0 l 163 0 z "},"Ï":{"ha":267,"x_min":-8,"x_max":274,"o":"m 274 1106 q 228 1151 263 1151 q 182 1106 182 1143 q 196 1072 183 1085 q 228 1060 213 1060 q 274 1106 274 1060 m 83 1106 q 38 1151 72 1151 q -8 1106 -8 1143 q 6 1072 -7 1085 q 38 1060 22 1060 q 83 1106 83 1060 m 163 0 l 163 992 l 107 992 l 107 0 l 163 0 z "},"Ð":{"ha":956,"x_min":44,"x_max":879,"o":"m 879 497 q 761 842 879 701 q 436 992 636 992 l 106 992 l 106 528 l 44 528 l 44 471 l 106 471 l 106 0 l 436 0 q 763 150 638 0 q 879 497 879 292 m 822 497 q 701 171 822 293 q 436 57 589 57 l 161 57 l 161 471 l 338 471 l 338 528 l 161 528 l 161 936 l 436 936 q 721 803 613 936 q 822 497 822 679 z "},"Ñ":{"ha":993,"x_min":107,"x_max":904,"o":"m 724 1111 l 683 1142 q 643 1108 654 1113 l 626 1103 l 594 1103 l 546 1108 l 506 1125 q 493 1132 499 1129 q 482 1138 488 1135 q 410 1151 444 1151 q 278 1081 317 1151 l 317 1050 q 403 1096 351 1096 q 453 1088 433 1096 l 493 1071 q 600 1046 535 1046 q 675 1065 643 1046 l 697 1083 l 724 1111 m 904 -17 l 904 992 l 847 992 l 847 131 l 107 999 l 107 0 l 163 0 l 163 842 l 904 -17 z "},"Ò":{"ha":1142,"x_min":69,"x_max":1090,"o":"m 600 1072 l 432 1240 l 404 1210 l 568 1044 l 600 1072 m 1090 496 q 947 864 1090 721 q 579 1006 803 1006 q 211 863 354 1006 q 69 496 69 721 q 213 128 69 271 q 579 -14 354 -14 q 947 129 804 -14 q 1090 496 1090 271 m 1033 496 q 907 168 1033 294 q 579 43 779 43 q 253 171 381 43 q 126 496 126 297 q 254 822 126 694 q 579 950 382 950 q 907 822 779 950 q 1033 496 1033 696 z "},"Ó":{"ha":1142,"x_min":69,"x_max":1090,"o":"m 710 1201 l 683 1229 l 529 1074 l 556 1047 l 710 1201 m 1090 496 q 947 864 1090 721 q 579 1006 803 1006 q 211 863 354 1006 q 69 496 69 721 q 213 128 69 271 q 579 -14 354 -14 q 947 129 804 -14 q 1090 496 1090 271 m 1033 496 q 907 168 1033 294 q 579 43 779 43 q 253 171 381 43 q 126 496 126 297 q 254 822 126 694 q 579 950 382 950 q 907 822 779 950 q 1033 496 1033 696 z "},"Ô":{"ha":1142,"x_min":69,"x_max":1090,"o":"m 743 1086 l 575 1254 l 407 1086 l 436 1057 l 575 1194 l 714 1057 l 743 1086 m 1090 496 q 947 864 1090 721 q 579 1006 803 1006 q 211 863 354 1006 q 69 496 69 721 q 213 128 69 271 q 579 -14 354 -14 q 947 129 804 -14 q 1090 496 1090 271 m 1033 496 q 907 168 1033 294 q 579 43 779 43 q 253 171 381 43 q 126 496 126 297 q 254 822 126 694 q 579 950 382 950 q 907 822 779 950 q 1033 496 1033 696 z "},"Õ":{"ha":1142,"x_min":69,"x_max":1090,"o":"m 786 1128 l 746 1158 q 706 1125 717 1129 l 689 1119 l 657 1119 l 608 1125 l 568 1142 q 556 1149 561 1146 q 544 1154 550 1151 q 472 1168 507 1168 q 340 1097 379 1168 l 379 1067 q 465 1113 414 1113 q 515 1104 496 1113 l 556 1088 q 663 1063 597 1063 q 738 1082 706 1063 l 760 1100 l 786 1128 m 1090 496 q 947 864 1090 721 q 579 1006 803 1006 q 211 863 354 1006 q 69 496 69 721 q 213 128 69 271 q 579 -14 354 -14 q 947 129 804 -14 q 1090 496 1090 271 m 1033 496 q 907 168 1033 294 q 579 43 779 43 q 253 171 381 43 q 126 496 126 297 q 254 822 126 694 q 579 950 382 950 q 907 822 779 950 q 1033 496 1033 696 z "},"Ö":{"ha":1142,"x_min":69,"x_max":1090,"o":"m 715 1106 q 669 1151 704 1151 q 624 1106 624 1143 q 638 1072 625 1085 q 669 1060 654 1060 q 715 1106 715 1060 m 525 1106 q 479 1151 514 1151 q 433 1106 433 1143 q 447 1072 435 1085 q 479 1060 464 1060 q 525 1106 525 1060 m 1090 496 q 947 864 1090 721 q 579 1006 803 1006 q 211 863 354 1006 q 69 496 69 721 q 213 128 69 271 q 579 -14 354 -14 q 947 129 804 -14 q 1090 496 1090 271 m 1033 496 q 907 168 1033 294 q 579 43 779 43 q 253 171 381 43 q 126 496 126 297 q 254 822 126 694 q 579 950 382 950 q 907 822 779 950 q 1033 496 1033 696 z "},"×":{"ha":1308,"x_min":10,"x_max":1301,"o":"m 901 482 q 894 469 897 475 q 886 458 890 464 l 886 482 q 892 486 889 482 q 897 493 894 490 l 901 482 m 999 636 l 983 617 l 997 643 l 999 636 m 1008 518 q 1014 539 1011 532 l 1011 518 l 1008 518 m 1207 483 q 1138 494 1178 483 q 1068 513 1097 506 q 1071 523 1069 518 q 1072 533 1072 528 q 1083 532 1076 532 q 1093 529 1090 532 l 1096 531 q 1135 526 1114 526 l 1139 531 q 1122 538 1139 536 q 1101 540 1106 539 l 1103 546 l 1124 546 q 1192 542 1158 546 q 1258 522 1226 538 q 1226 501 1249 508 l 1224 497 q 1222 485 1225 486 q 1207 483 1218 483 m 1011 510 l 1008 510 l 1011 510 m 1114 492 l 1113 489 q 1122 483 1113 486 q 1144 477 1132 481 q 1167 472 1156 474 q 1183 468 1179 469 q 1122 480 1151 474 q 1063 494 1092 486 l 1065 504 q 1090 498 1078 501 q 1114 492 1101 494 m 1178 478 q 1197 475 1193 475 q 1218 468 1203 475 q 1197 473 1207 471 q 1178 478 1188 475 m 1076 554 q 1088 604 1083 579 q 1097 656 1092 629 q 1092 604 1094 629 q 1089 554 1090 579 l 1076 554 m 1018 499 l 1047 490 q 1031 464 1043 481 q 1013 436 1019 447 q 1016 467 1015 451 q 1018 499 1017 483 m 1019 510 l 1036 510 q 1053 507 1042 510 l 1050 497 q 1034 502 1042 500 q 1019 507 1026 504 l 1019 510 m 1022 544 q 1041 542 1032 543 q 1060 539 1050 540 l 1064 536 q 1057 515 1063 529 q 1038 518 1047 518 q 1019 518 1029 518 l 1022 544 m 1007 621 l 1007 635 l 1019 653 q 1013 636 1017 644 q 1007 621 1010 628 m 950 564 q 952 563 951 564 q 954 563 953 563 q 962 571 956 563 q 976 590 968 579 q 990 611 983 601 q 999 624 997 621 q 1000 603 1000 617 q 992 583 1000 599 q 974 547 985 567 q 954 510 964 528 q 942 488 944 493 q 946 526 944 507 q 950 564 947 544 m 903 500 q 915 515 911 511 q 913 503 915 507 q 906 492 911 500 l 903 500 m 914 489 l 914 469 l 910 481 l 914 489 m 892 508 l 893 503 l 890 499 l 892 508 m 360 725 l 357 725 q 347 726 354 726 l 339 735 l 342 736 q 351 732 346 735 q 360 725 357 729 m 388 719 l 389 719 l 388 719 m 79 340 l 79 436 q 214 422 147 433 q 349 401 281 411 l 349 386 q 79 340 213 371 m 349 529 l 349 501 q 300 504 328 503 q 245 510 272 506 q 194 525 218 515 q 157 554 169 535 q 167 557 160 557 q 259 549 214 557 q 349 529 304 540 m 438 472 q 422 484 431 479 q 406 492 414 489 l 406 514 q 453 501 429 507 q 500 492 476 496 q 470 478 489 482 q 438 472 451 475 m 378 399 l 376 399 l 378 399 m 349 458 l 349 447 q 331 453 339 450 q 313 458 322 456 l 349 458 m 426 471 q 416 470 421 471 q 406 469 411 469 l 406 483 q 426 471 415 479 m 449 415 l 414 415 q 419 419 419 415 q 414 424 419 422 q 406 426 408 425 l 406 461 q 419 463 413 463 q 433 464 426 463 q 444 441 442 453 q 449 415 447 429 m 349 378 l 349 317 q 282 307 315 310 q 214 304 249 304 l 178 304 q 128 308 153 304 q 79 315 103 311 l 79 331 q 213 359 146 347 q 349 378 281 371 m 446 388 q 431 360 442 372 q 406 339 419 347 l 406 353 q 407 360 406 356 q 410 368 408 365 l 406 369 l 406 385 q 426 385 417 385 q 446 388 435 386 m 449 407 l 449 400 q 440 401 446 400 q 426 402 433 401 q 413 403 418 403 q 406 404 407 404 l 406 407 l 449 407 m 406 324 l 406 329 q 437 353 424 339 q 454 388 450 368 q 463 388 456 388 q 476 390 469 389 q 489 391 483 390 q 494 394 494 392 q 489 399 494 397 q 476 400 483 400 q 464 400 471 400 q 457 400 458 400 l 457 408 q 579 417 519 411 q 493 369 536 392 q 406 324 450 347 m 356 600 l 357 599 l 356 600 m 299 606 l 317 604 l 299 606 m 406 606 l 406 607 q 415 606 408 606 l 406 606 m 475 586 q 483 589 478 586 l 489 589 q 486 583 486 586 l 475 586 m 451 578 l 453 578 l 456 578 l 451 578 m 346 619 l 347 614 l 340 614 l 346 619 m 324 668 q 335 650 331 660 q 343 629 340 640 l 328 615 q 318 616 325 615 q 303 617 311 617 q 288 615 294 617 q 282 610 282 614 l 293 607 l 293 599 q 322 596 308 599 q 349 589 335 593 l 349 538 q 260 557 304 549 q 171 565 215 565 q 157 564 165 565 q 149 556 149 563 q 174 524 149 536 q 234 506 200 513 q 301 497 268 500 q 349 493 335 494 l 349 467 q 331 467 344 467 q 304 468 318 468 q 279 467 290 468 q 268 461 268 465 q 282 455 271 458 q 306 448 293 451 q 330 442 318 444 q 349 438 342 439 l 349 418 q 214 432 281 422 q 79 444 147 442 l 79 590 q 117 685 79 649 q 214 721 156 721 q 252 717 233 721 q 288 701 271 713 q 288 696 285 699 q 295 690 290 693 q 305 685 300 688 q 313 682 310 683 q 298 681 308 682 q 276 679 288 681 q 256 676 265 678 q 247 671 247 674 l 251 665 q 288 665 269 665 q 324 668 306 665 m 369 718 l 372 717 q 367 713 369 714 q 361 711 364 713 q 358 715 360 714 q 356 718 357 715 q 363 717 358 717 q 369 718 367 718 m 383 699 l 378 699 l 369 699 l 368 703 q 377 708 371 706 q 388 711 383 711 q 385 706 386 708 q 383 701 383 704 l 383 699 m 428 675 q 432 681 429 678 l 439 674 q 433 674 436 674 q 428 675 431 675 m 382 690 l 381 690 l 382 690 m 336 746 q 327 747 333 746 q 318 750 321 747 l 324 756 l 336 746 m 189 1049 l 214 1049 l 207 1049 l 201 1049 l 189 1049 m 504 571 l 501 571 l 500 574 l 514 571 l 504 571 m 406 197 l 406 253 q 431 242 419 249 q 453 226 442 235 q 406 197 435 206 m 361 35 q 369 32 363 32 q 381 32 378 32 q 370 30 375 31 q 358 29 365 29 l 353 29 q 335 30 343 29 q 318 32 326 31 q 333 35 326 35 l 361 35 m 432 33 l 432 35 q 471 35 451 35 q 510 39 490 36 q 471 35 490 35 q 432 33 451 35 m 426 43 l 415 51 q 476 58 446 56 q 538 61 507 61 l 538 69 l 388 63 l 417 65 l 418 74 l 372 85 q 413 100 392 96 q 456 111 435 104 l 456 119 q 351 153 401 132 l 381 157 l 382 165 l 342 178 q 406 189 374 181 q 461 224 439 197 l 461 229 l 406 261 l 406 314 q 503 365 454 339 q 600 418 551 390 l 599 426 l 457 417 l 443 465 q 479 475 463 468 q 511 492 496 482 l 510 499 q 457 509 482 503 q 406 522 432 515 l 406 558 l 415 565 l 510 554 l 514 557 l 535 553 l 538 561 l 528 564 l 557 567 l 557 575 l 497 582 l 518 583 l 519 592 q 463 602 490 600 q 407 615 435 604 l 417 656 l 425 663 l 508 660 l 453 669 l 438 686 q 485 714 457 707 q 540 721 513 721 q 636 685 597 721 q 675 590 675 649 l 675 0 l 732 0 l 732 471 l 740 479 l 1218 0 l 1297 0 l 789 510 l 813 514 l 817 490 l 836 511 l 832 493 l 839 489 l 857 506 l 854 478 l 863 475 l 879 500 l 878 444 l 885 442 l 904 471 l 911 446 l 919 446 l 928 472 l 928 449 l 936 449 q 944 474 936 457 q 963 513 953 492 q 985 552 974 533 q 1000 582 996 571 l 999 518 l 981 510 l 1010 500 l 1001 417 l 1010 414 l 1029 449 l 1033 438 l 1058 488 q 1153 465 1106 475 q 1250 449 1201 456 l 1226 428 l 1261 415 l 1201 403 l 1200 394 l 1238 378 l 1240 386 l 1215 396 l 1276 411 l 1276 419 l 1238 432 l 1261 447 l 1301 443 l 1301 451 q 1258 457 1281 453 q 1219 476 1236 461 q 1240 501 1226 490 q 1267 521 1254 513 l 1265 528 q 1190 550 1229 546 q 1113 554 1151 554 l 1126 583 l 1119 588 l 1099 554 l 1097 554 q 1103 630 1099 592 q 1107 706 1107 668 l 1099 707 q 1083 630 1089 668 q 1068 554 1076 592 l 1024 554 l 1026 583 l 1018 585 l 1010 554 l 1008 554 l 1008 564 q 1017 621 1007 593 q 1036 676 1026 649 l 1029 681 l 1006 647 l 996 658 l 951 569 l 940 571 l 931 524 l 926 547 q 914 527 921 536 q 900 510 907 518 l 889 544 l 881 543 l 879 515 l 864 493 l 865 517 l 858 519 l 843 504 l 856 535 l 849 539 l 819 504 q 821 523 824 511 q 815 542 818 535 l 814 522 l 782 517 l 781 518 l 1256 992 l 1175 992 l 732 551 l 732 992 l 675 992 l 675 732 q 612 766 647 756 q 540 776 576 776 q 500 772 517 776 q 467 759 483 767 q 436 742 451 751 q 401 725 421 733 l 361 739 l 361 742 l 351 743 l 326 764 l 310 754 l 283 765 l 347 775 l 347 783 l 292 794 q 328 794 310 792 q 364 801 346 796 l 364 810 l 264 840 q 329 840 294 840 q 397 844 364 840 q 462 860 431 849 q 518 894 493 871 l 515 901 q 367 899 442 901 q 222 919 293 897 l 286 946 l 283 954 q 231 948 257 949 q 176 946 204 947 q 217 957 186 954 q 285 961 249 960 q 354 963 321 963 q 406 965 389 963 l 406 974 q 334 985 369 979 q 264 1003 299 992 q 331 1031 297 1018 q 401 1046 364 1044 l 404 1054 l 510 1076 l 508 1085 l 440 1088 q 382 1085 411 1089 q 324 1083 353 1081 l 347 1103 l 306 1115 l 354 1196 l 346 1201 q 333 1180 342 1194 q 314 1149 324 1165 q 298 1117 304 1132 q 293 1096 292 1103 l 321 1101 l 335 1097 l 300 1081 q 322 1076 306 1078 q 344 1074 338 1074 q 413 1077 379 1074 q 481 1078 446 1081 q 430 1065 456 1071 q 378 1058 404 1058 l 347 1064 l 344 1069 q 285 1076 314 1071 q 225 1085 256 1081 l 225 1076 l 276 1068 l 243 1071 l 243 1063 l 335 1053 q 261 1050 299 1050 q 188 1046 224 1050 l 310 1038 l 322 1038 l 251 1007 l 251 999 q 308 981 279 988 q 367 971 338 975 q 264 969 317 969 q 167 942 211 968 l 171 938 q 211 938 190 938 q 251 940 232 938 l 210 924 l 210 915 q 294 895 250 900 q 381 892 338 890 l 504 893 q 452 866 481 875 q 394 853 424 857 q 333 849 364 849 q 274 849 303 849 q 263 849 271 849 q 247 849 256 850 q 233 847 239 849 q 232 840 228 844 q 292 824 263 833 q 350 806 321 815 l 321 801 q 274 806 297 801 q 228 813 251 810 l 226 804 q 322 779 274 789 q 294 774 308 776 q 264 771 279 771 q 210 772 236 771 q 160 768 183 772 q 117 751 138 764 q 79 711 96 739 l 79 768 l 22 768 l 22 325 l 10 322 l 22 314 l 22 194 l 79 194 l 79 307 q 214 294 146 296 q 349 308 282 293 q 345 284 346 299 q 345 253 344 269 q 347 220 346 236 q 349 194 349 204 l 396 194 q 358 188 376 189 q 319 185 339 186 l 318 176 l 361 163 l 336 158 l 336 150 q 386 131 361 139 q 439 115 411 122 q 399 103 419 108 q 361 89 379 99 l 385 71 l 367 68 l 365 60 l 371 58 q 315 54 343 56 q 258 53 286 53 l 257 44 l 303 38 l 293 26 q 403 7 349 24 l 406 15 l 385 19 q 456 23 418 24 q 524 40 493 22 q 511 44 518 42 q 499 46 504 46 l 426 43 m 369 43 q 386 46 378 44 q 403 49 394 47 q 408 47 406 47 q 413 43 410 46 l 383 43 l 369 43 m 360 50 q 346 46 354 49 q 333 43 338 43 q 317 44 325 43 q 303 46 310 44 q 360 50 331 46 m 500 572 l 501 571 l 504 571 l 500 572 z "},"Ø":{"ha":1142,"x_min":69,"x_max":1090,"o":"m 1090 496 q 906 899 1090 753 l 964 982 l 913 1014 l 856 933 q 579 1006 733 1006 q 211 863 354 1006 q 69 496 69 721 q 118 267 69 375 q 264 86 168 156 l 208 6 l 258 -28 l 314 53 q 579 -14 436 -14 q 947 129 804 -14 q 1090 496 1090 271 m 1033 496 q 907 168 1033 294 q 579 43 779 43 q 347 100 454 43 l 872 851 q 1033 496 1033 722 m 824 886 l 297 133 q 171 286 214 194 q 126 496 126 379 q 254 822 126 694 q 579 950 382 950 q 824 886 710 950 z "},"Ù":{"ha":771,"x_min":106,"x_max":681,"o":"m 436 1072 l 269 1240 l 240 1210 l 406 1044 l 436 1072 m 681 247 l 681 992 l 624 992 l 624 247 q 553 99 624 154 q 392 47 488 47 q 231 97 294 47 q 161 247 161 151 l 161 992 l 106 992 l 106 247 q 190 56 106 126 q 392 -10 271 -10 q 593 54 517 -10 q 681 247 681 126 z "},"Ú":{"ha":771,"x_min":106,"x_max":681,"o":"m 553 1201 l 526 1229 l 371 1074 l 399 1047 l 553 1201 m 681 247 l 681 992 l 624 992 l 624 247 q 553 99 624 154 q 392 47 488 47 q 231 97 294 47 q 161 247 161 151 l 161 992 l 106 992 l 106 247 q 190 56 106 126 q 392 -10 271 -10 q 593 54 517 -10 q 681 247 681 126 z "},"Û":{"ha":771,"x_min":106,"x_max":681,"o":"m 561 1086 l 394 1254 l 225 1086 l 256 1057 l 394 1194 l 533 1057 l 561 1086 m 681 247 l 681 992 l 624 992 l 624 247 q 553 99 624 154 q 392 47 488 47 q 231 97 294 47 q 161 247 161 151 l 161 992 l 106 992 l 106 247 q 190 56 106 126 q 392 -10 271 -10 q 593 54 517 -10 q 681 247 681 126 z "},"Ü":{"ha":771,"x_min":106,"x_max":681,"o":"m 531 1106 q 485 1151 519 1151 q 439 1106 439 1143 q 453 1072 440 1085 q 485 1060 469 1060 q 531 1106 531 1060 m 340 1106 q 294 1151 329 1151 q 249 1106 249 1143 q 263 1072 250 1085 q 294 1060 279 1060 q 340 1106 340 1060 m 681 247 l 681 992 l 624 992 l 624 247 q 553 99 624 154 q 392 47 488 47 q 231 97 294 47 q 161 247 161 151 l 161 992 l 106 992 l 106 247 q 190 56 106 126 q 392 -10 271 -10 q 593 54 517 -10 q 681 247 681 126 z "},"Ý":{"ha":710,"x_min":46,"x_max":668,"o":"m 526 1201 l 497 1232 l 342 1071 l 371 1047 l 526 1201 m 668 992 l 603 992 l 356 563 l 111 992 l 46 992 l 328 496 l 328 0 l 385 0 l 385 496 l 668 992 z "},"Þ":{"ha":681,"x_min":106,"x_max":617,"o":"m 617 504 q 539 683 617 617 q 347 750 461 750 l 161 750 l 161 992 l 106 992 l 106 0 l 161 0 l 161 254 l 347 254 q 539 324 461 254 q 617 504 617 390 m 560 504 q 499 361 560 414 q 346 311 438 311 l 161 311 l 161 693 l 346 693 q 496 646 439 693 q 560 504 560 594 z "},"ß":{"ha":749,"x_min":31,"x_max":701,"o":"m 701 292 q 624 489 701 415 q 465 561 560 549 q 576 767 576 635 q 507 928 576 863 q 340 992 436 992 q 169 924 229 992 q 110 746 110 858 l 110 574 l 31 574 l 31 517 l 110 517 l 110 0 l 165 0 l 165 744 q 340 935 165 935 q 467 886 414 935 q 519 767 519 838 q 471 632 519 692 q 347 574 422 574 l 347 518 q 644 292 644 518 q 588 128 644 196 q 433 57 526 57 l 275 57 l 275 0 l 432 0 q 632 83 558 0 q 701 292 701 164 z "},"à":{"ha":708,"x_min":49,"x_max":631,"o":"m 394 683 l 208 869 l 178 836 l 360 651 l 394 683 m 631 0 l 631 574 l 574 574 l 574 474 q 344 582 482 582 q 133 496 219 582 q 49 286 49 411 q 135 75 49 161 q 344 -10 219 -10 q 574 99 483 -10 l 574 0 l 631 0 m 585 286 q 514 115 585 186 q 344 46 444 46 q 175 117 246 46 q 104 286 104 188 q 175 457 104 386 q 344 526 244 526 q 514 456 443 526 q 585 286 585 385 z "},"á":{"ha":708,"x_min":49,"x_max":631,"o":"m 517 836 l 486 869 l 300 683 l 335 651 l 517 836 m 631 0 l 631 574 l 574 574 l 574 474 q 344 582 482 582 q 133 496 219 582 q 49 286 49 411 q 135 75 49 161 q 344 -10 219 -10 q 574 99 483 -10 l 574 0 l 631 0 m 585 286 q 514 115 585 186 q 344 46 444 46 q 175 117 246 46 q 104 286 104 188 q 175 457 104 386 q 344 526 244 526 q 514 456 443 526 q 585 286 585 385 z "},"â":{"ha":708,"x_min":49,"x_max":631,"o":"m 507 689 l 340 856 l 171 689 l 201 658 l 340 796 l 479 658 l 507 689 m 631 0 l 631 574 l 574 574 l 574 474 q 344 582 482 582 q 133 496 219 582 q 49 286 49 411 q 135 75 49 161 q 344 -10 219 -10 q 574 99 483 -10 l 574 0 l 631 0 m 585 286 q 514 115 585 186 q 344 46 444 46 q 175 117 246 46 q 104 286 104 188 q 175 457 104 386 q 344 526 244 526 q 514 456 443 526 q 585 286 585 385 z "},"ã":{"ha":708,"x_min":49,"x_max":631,"o":"m 571 743 l 532 774 q 436 735 497 735 l 393 740 l 353 758 q 314 778 332 772 q 290 782 303 781 q 258 783 276 783 q 126 713 165 783 l 164 682 q 258 728 207 728 l 300 722 q 319 715 310 719 q 340 703 329 710 q 439 678 378 678 q 522 697 486 678 l 544 715 l 571 743 m 631 0 l 631 574 l 574 574 l 574 474 q 344 582 482 582 q 133 496 219 582 q 49 286 49 411 q 135 75 49 161 q 344 -10 219 -10 q 574 99 483 -10 l 574 0 l 631 0 m 585 286 q 514 115 585 186 q 344 46 444 46 q 175 117 246 46 q 104 286 104 188 q 175 457 104 386 q 344 526 244 526 q 514 456 443 526 q 585 286 585 385 z "},"ä":{"ha":708,"x_min":49,"x_max":631,"o":"m 474 722 q 428 768 463 768 q 382 722 382 760 q 396 689 383 701 q 428 676 413 676 q 474 722 474 676 m 283 722 q 238 768 272 768 q 192 722 192 760 q 206 689 193 701 q 238 676 222 676 q 283 722 283 676 m 631 0 l 631 574 l 574 574 l 574 474 q 344 582 482 582 q 133 496 219 582 q 49 286 49 411 q 135 75 49 161 q 344 -10 219 -10 q 574 99 483 -10 l 574 0 l 631 0 m 585 286 q 514 115 585 186 q 344 46 444 46 q 175 117 246 46 q 104 286 104 188 q 175 457 104 386 q 344 526 244 526 q 514 456 443 526 q 585 286 585 385 z "},"å":{"ha":708,"x_min":49,"x_max":631,"o":"m 454 747 q 419 828 454 793 q 339 863 385 863 q 258 828 293 863 q 224 747 224 793 q 258 667 224 701 q 339 632 293 632 q 419 667 385 632 q 454 747 454 701 m 631 0 l 631 574 l 574 574 l 574 474 q 344 582 482 582 q 133 496 219 582 q 49 286 49 411 q 135 75 49 161 q 344 -10 219 -10 q 574 99 483 -10 l 574 0 l 631 0 m 425 749 q 399 689 425 715 q 339 663 372 663 q 279 689 306 663 q 253 749 253 715 q 279 808 253 782 q 339 835 306 835 q 399 808 372 835 q 425 749 425 782 m 585 286 q 514 115 585 186 q 344 46 444 46 q 175 117 246 46 q 104 286 104 188 q 175 457 104 386 q 344 526 244 526 q 514 456 443 526 q 585 286 585 385 z "},"æ":{"ha":1219,"x_min":49,"x_max":1171,"o":"m 1171 299 q 1086 503 1171 426 q 875 581 1001 581 q 631 461 714 581 l 631 574 l 574 574 l 574 474 q 344 582 482 582 q 133 496 219 582 q 49 286 49 411 q 135 75 49 161 q 344 -10 219 -10 q 574 99 483 -10 l 574 0 l 631 0 l 631 108 q 875 -11 717 -11 q 972 3 929 -11 q 1139 142 1085 39 l 1088 165 q 981 64 1040 89 q 875 44 933 44 q 696 114 761 44 q 633 299 633 182 l 1171 299 m 1107 353 l 642 353 q 875 525 697 525 q 1043 464 978 525 q 1107 353 1093 417 m 585 286 q 514 115 585 186 q 344 46 444 46 q 175 117 246 46 q 104 286 104 188 q 175 457 104 386 q 344 526 244 526 q 514 456 443 526 q 585 286 585 385 z "},"ç":{"ha":608,"x_min":65,"x_max":538,"o":"m 538 40 l 538 115 l 494 81 q 363 46 435 46 q 190 114 258 46 q 122 286 122 182 q 190 460 122 392 q 363 528 257 528 q 496 493 436 528 l 517 476 l 538 458 l 538 533 l 493 558 q 363 583 431 583 q 150 499 235 583 q 65 286 65 415 q 139 83 65 165 q 332 -11 213 1 l 314 -65 l 340 -86 q 354 -115 354 -100 l 351 -126 l 347 -135 q 325 -146 336 -146 q 297 -137 310 -146 l 275 -118 l 257 -167 q 328 -201 286 -201 q 386 -179 360 -201 q 411 -125 411 -157 q 374 -57 403 -71 l 392 -10 q 497 15 447 -10 l 538 40 z "},"è":{"ha":681,"x_min":47,"x_max":640,"o":"m 406 683 l 219 869 l 189 836 l 371 651 l 406 683 m 640 299 q 556 504 640 425 q 344 583 472 583 q 131 499 215 583 q 47 286 47 415 q 132 74 47 158 q 344 -11 215 -11 q 442 3 399 -11 q 608 142 554 39 l 557 165 q 450 64 510 89 q 344 44 403 44 q 165 114 231 44 q 103 299 103 182 l 640 299 m 576 353 l 111 353 q 344 528 167 528 q 494 481 429 528 q 576 353 563 432 z "},"é":{"ha":681,"x_min":47,"x_max":640,"o":"m 494 836 l 464 869 l 278 683 l 311 651 l 494 836 m 640 299 q 556 504 640 425 q 344 583 472 583 q 131 499 215 583 q 47 286 47 415 q 132 74 47 158 q 344 -11 215 -11 q 442 3 399 -11 q 608 142 554 39 l 557 165 q 450 64 510 89 q 344 44 403 44 q 165 114 231 44 q 103 299 103 182 l 640 299 m 576 353 l 111 353 q 344 528 167 528 q 494 481 429 528 q 576 353 563 432 z "},"ê":{"ha":681,"x_min":47,"x_max":640,"o":"m 517 689 l 350 856 l 182 689 l 211 658 l 350 796 l 489 658 l 517 689 m 640 299 q 556 504 640 425 q 344 583 472 583 q 131 499 215 583 q 47 286 47 415 q 132 74 47 158 q 344 -11 215 -11 q 442 3 399 -11 q 608 142 554 39 l 557 165 q 450 64 510 89 q 344 44 403 44 q 165 114 231 44 q 103 299 103 182 l 640 299 m 576 353 l 111 353 q 344 528 167 528 q 494 481 429 528 q 576 353 563 432 z "},"ë":{"ha":681,"x_min":47,"x_max":640,"o":"m 483 722 q 438 768 472 768 q 392 722 392 760 q 406 689 393 701 q 438 676 422 676 q 483 722 483 676 m 293 722 q 247 768 282 768 q 201 722 201 760 q 215 689 203 701 q 247 676 232 676 q 293 722 293 676 m 640 299 q 556 504 640 425 q 344 583 472 583 q 131 499 215 583 q 47 286 47 415 q 132 74 47 158 q 344 -11 215 -11 q 442 3 399 -11 q 608 142 554 39 l 557 165 q 450 64 510 89 q 344 44 403 44 q 165 114 231 44 q 103 299 103 182 l 640 299 m 576 353 l 111 353 q 344 528 167 528 q 494 481 429 528 q 576 353 563 432 z "},"ì":{"ha":256,"x_min":-53,"x_max":164,"o":"m 164 683 l -21 869 l -53 836 l 131 651 l 164 683 m 158 0 l 158 574 l 101 574 l 101 0 l 158 0 z "},"í":{"ha":256,"x_min":101,"x_max":319,"o":"m 319 836 l 288 869 l 101 683 l 136 651 l 319 836 m 158 0 l 158 574 l 101 574 l 101 0 l 158 0 z "},"î":{"ha":354,"x_min":11,"x_max":347,"o":"m 347 689 l 181 856 l 11 689 l 42 658 l 181 796 l 319 658 l 347 689 m 206 0 l 206 574 l 149 574 l 149 0 l 206 0 z "},"ï":{"ha":256,"x_min":-14,"x_max":268,"o":"m 268 722 q 222 768 257 768 q 176 722 176 760 q 190 689 178 701 q 222 676 207 676 q 268 722 268 676 m 78 722 q 32 768 67 768 q -14 722 -14 757 q 32 676 -6 676 q 78 722 78 676 m 158 0 l 158 574 l 101 574 l 101 0 l 158 0 z "},"ð":{"ha":692,"x_min":49,"x_max":640,"o":"m 640 286 q 589 610 640 489 q 443 801 544 711 l 569 881 l 514 917 l 392 840 q 246 911 321 890 l 196 863 l 267 833 l 329 801 l 208 725 l 264 689 l 383 764 q 560 489 525 661 q 344 582 471 582 q 133 496 219 582 q 49 286 49 411 q 135 75 49 161 q 344 -10 219 -10 q 556 76 469 -10 q 640 286 640 161 m 585 286 q 514 115 585 186 q 344 46 444 46 q 175 117 246 46 q 104 286 104 188 q 175 457 104 386 q 344 526 244 526 q 514 456 443 526 q 585 286 585 385 z "},"ñ":{"ha":626,"x_min":89,"x_max":535,"o":"m 535 743 l 494 774 q 454 740 465 744 l 438 735 l 406 735 l 357 740 l 317 757 q 304 764 310 761 q 293 769 299 767 q 221 783 256 783 q 89 713 128 783 l 128 682 q 214 728 163 728 q 264 719 244 728 l 304 703 q 411 678 346 678 q 486 697 454 678 l 508 715 l 535 743 m 535 0 l 535 349 q 478 519 535 458 q 314 581 421 581 q 149 504 188 581 l 149 574 l 92 574 l 92 0 l 149 0 l 149 349 q 192 478 149 431 q 314 525 233 525 q 478 343 478 525 l 478 0 l 535 0 z "},"ò":{"ha":692,"x_min":49,"x_max":640,"o":"m 404 683 l 218 869 l 188 836 l 369 651 l 404 683 m 640 286 q 554 497 640 411 q 344 583 468 583 q 135 496 219 583 q 49 286 49 410 q 135 75 49 161 q 344 -10 219 -10 q 556 76 469 -10 q 640 286 640 161 m 585 286 q 514 115 585 186 q 344 46 444 46 q 175 117 246 46 q 104 286 104 188 q 176 456 104 383 q 344 528 247 528 q 515 457 446 528 q 585 286 585 388 z "},"ó":{"ha":692,"x_min":49,"x_max":640,"o":"m 500 836 l 469 869 l 283 683 l 318 651 l 500 836 m 640 286 q 554 497 640 411 q 344 583 468 583 q 135 496 219 583 q 49 286 49 410 q 135 75 49 161 q 344 -10 219 -10 q 556 76 469 -10 q 640 286 640 161 m 585 286 q 514 115 585 186 q 344 46 444 46 q 175 117 246 46 q 104 286 104 188 q 176 456 104 383 q 344 528 247 528 q 515 457 446 528 q 585 286 585 388 z "},"ô":{"ha":692,"x_min":49,"x_max":640,"o":"m 507 689 l 340 856 l 171 689 l 201 658 l 340 796 l 479 658 l 507 689 m 640 286 q 554 497 640 411 q 344 583 468 583 q 135 496 219 583 q 49 286 49 410 q 135 75 49 161 q 344 -10 219 -10 q 556 76 469 -10 q 640 286 640 161 m 585 286 q 514 115 585 186 q 344 46 444 46 q 175 117 246 46 q 104 286 104 188 q 176 456 104 383 q 344 528 247 528 q 515 457 446 528 q 585 286 585 388 z "},"õ":{"ha":692,"x_min":49,"x_max":640,"o":"m 560 743 l 519 774 q 479 740 490 744 l 463 735 l 431 735 l 382 740 l 342 757 q 329 764 335 761 q 318 769 324 767 q 246 783 281 783 q 114 713 153 783 l 153 682 q 239 728 188 728 q 289 719 269 728 l 329 703 q 436 678 371 678 q 511 697 479 678 l 533 715 l 560 743 m 640 286 q 554 497 640 411 q 344 583 468 583 q 135 496 219 583 q 49 286 49 410 q 135 75 49 161 q 344 -10 219 -10 q 556 76 469 -10 q 640 286 640 161 m 585 286 q 514 115 585 186 q 344 46 444 46 q 175 117 246 46 q 104 286 104 188 q 176 456 104 383 q 344 528 247 528 q 515 457 446 528 q 585 286 585 388 z "},"ö":{"ha":692,"x_min":49,"x_max":640,"o":"m 479 722 q 433 768 468 768 q 388 722 388 760 q 401 689 389 701 q 433 676 418 676 q 479 722 479 676 m 289 722 q 243 768 278 768 q 197 722 197 760 q 211 689 199 701 q 243 676 228 676 q 289 722 289 676 m 640 286 q 554 497 640 411 q 344 583 468 583 q 135 496 219 583 q 49 286 49 410 q 135 75 49 161 q 344 -10 219 -10 q 556 76 469 -10 q 640 286 640 161 m 585 286 q 514 115 585 186 q 344 46 444 46 q 175 117 246 46 q 104 286 104 188 q 176 456 104 383 q 344 528 247 528 q 515 457 446 528 q 585 286 585 388 z "},"÷":{"ha":503,"x_min":79,"x_max":436,"o":"m 303 529 q 257 575 292 575 q 211 529 211 567 q 225 496 213 508 q 257 483 242 483 q 303 529 303 483 m 436 332 l 436 403 l 79 403 l 79 332 l 436 332 m 303 203 q 257 249 292 249 q 211 203 211 240 q 225 169 213 182 q 257 157 242 157 q 303 203 303 157 z "},"ø":{"ha":692,"x_min":49,"x_max":640,"o":"m 640 286 q 543 506 640 417 l 600 588 l 550 621 l 494 542 q 344 582 425 582 q 133 496 219 582 q 49 286 49 411 q 156 58 49 146 l 106 -14 l 153 -49 l 204 25 q 344 -10 268 -10 q 556 76 469 -10 q 640 286 640 161 m 585 286 q 514 115 585 186 q 344 46 444 46 l 289 51 l 263 60 l 238 71 l 511 460 q 585 286 585 390 m 463 496 l 188 104 q 104 286 104 176 q 175 457 104 386 q 344 526 244 526 q 463 496 406 526 z "},"ù":{"ha":596,"x_min":85,"x_max":513,"o":"m 339 683 l 153 869 l 122 836 l 304 651 l 339 683 m 513 215 l 513 574 l 457 574 l 457 215 q 297 44 457 44 q 178 89 215 44 q 142 215 142 133 l 142 574 l 85 574 l 85 215 q 140 49 85 108 q 297 -11 196 -11 q 457 50 400 -11 q 513 215 513 110 z "},"ú":{"ha":596,"x_min":85,"x_max":513,"o":"m 488 836 l 457 869 l 271 683 l 304 651 l 488 836 m 513 215 l 513 574 l 457 574 l 457 215 q 297 44 457 44 q 178 89 215 44 q 142 215 142 133 l 142 574 l 85 574 l 85 215 q 140 49 85 108 q 297 -11 196 -11 q 457 50 400 -11 q 513 215 513 110 z "},"û":{"ha":596,"x_min":85,"x_max":513,"o":"m 467 689 l 299 856 l 131 689 l 160 658 l 299 796 l 438 658 l 467 689 m 513 215 l 513 574 l 457 574 l 457 215 q 297 44 457 44 q 178 89 215 44 q 142 215 142 133 l 142 574 l 85 574 l 85 215 q 140 49 85 108 q 297 -11 196 -11 q 457 50 400 -11 q 513 215 513 110 z "},"ü":{"ha":596,"x_min":85,"x_max":513,"o":"m 438 722 q 392 768 426 768 q 346 722 346 760 q 360 689 347 701 q 392 676 376 676 q 438 722 438 676 m 247 722 q 201 768 236 768 q 156 722 156 760 q 169 689 157 701 q 201 676 186 676 q 247 722 247 676 m 513 215 l 513 574 l 457 574 l 457 215 q 297 44 457 44 q 178 89 215 44 q 142 215 142 133 l 142 574 l 85 574 l 85 215 q 140 49 85 108 q 297 -11 196 -11 q 457 50 400 -11 q 513 215 513 110 z "},"ý":{"ha":1142,"x_min":69,"x_max":1090,"o":"m 1090 496 q 906 899 1090 753 l 964 982 l 913 1014 l 856 933 q 579 1006 733 1006 q 211 863 354 1006 q 69 496 69 721 q 118 267 69 375 q 264 86 168 156 l 208 6 l 258 -28 l 314 53 q 579 -14 436 -14 q 947 129 804 -14 q 1090 496 1090 271 m 824 886 l 297 133 q 171 286 214 194 q 126 496 126 379 q 254 822 126 694 q 579 950 379 950 q 824 886 710 950 m 1033 518 l 1033 496 q 907 168 1033 294 q 579 43 779 43 q 347 100 454 43 l 872 851 q 1006 665 968 774 q 935 692 975 692 q 854 657 889 692 q 819 576 819 622 q 854 496 819 531 q 935 461 889 461 q 1015 496 981 461 q 1033 518 1025 506 m 1021 578 q 994 518 1021 544 q 935 492 968 492 q 875 518 901 492 q 849 578 849 544 q 875 638 849 611 q 935 664 901 664 q 994 638 968 664 q 1021 578 1021 611 m 550 576 q 515 657 550 622 q 435 692 481 692 q 354 657 389 692 q 319 576 319 622 q 354 496 319 531 q 435 461 389 461 q 515 496 481 461 q 550 576 550 531 m 521 578 q 494 518 521 544 q 435 492 468 492 q 375 518 401 492 q 349 578 349 544 q 375 638 349 611 q 435 664 401 664 q 494 638 468 664 q 521 578 521 611 m 418 554 q 427 533 418 542 q 449 524 436 524 q 470 533 461 524 q 479 554 479 542 q 470 576 479 567 q 449 585 461 585 q 427 576 436 585 q 418 554 418 567 m 919 550 q 928 528 919 538 q 950 519 938 519 q 972 528 963 519 q 981 550 981 538 q 972 572 981 563 q 950 581 963 581 q 928 572 938 581 q 919 550 919 563 m 856 210 l 831 240 q 713 189 779 189 q 586 243 640 189 l 557 210 q 707 149 614 149 q 856 210 803 149 z "},"þ":{"ha":713,"x_min":89,"x_max":678,"o":"m 678 286 q 592 497 678 411 q 382 582 507 582 q 146 465 235 582 l 146 1028 l 89 1028 l 89 -269 l 146 -269 l 146 107 q 382 -10 239 -10 q 593 76 507 -10 q 678 286 678 161 m 622 286 q 551 115 622 186 q 382 46 482 46 q 213 117 283 46 q 142 286 142 188 q 213 457 142 386 q 382 526 282 526 q 551 456 481 526 q 622 286 622 385 z "},"ÿ":{"ha":618,"x_min":39,"x_max":588,"o":"m 460 722 q 414 768 449 768 q 368 722 368 760 q 382 689 369 701 q 414 676 399 676 q 460 722 460 676 m 269 722 q 224 768 258 768 q 178 722 178 760 q 192 689 179 701 q 224 676 208 676 q 269 722 269 676 m 588 574 l 525 574 l 314 121 l 100 574 l 39 574 l 281 53 l 132 -269 l 196 -269 l 588 574 z "},"":{"ha":442,"x_min":79,"x_max":372,"o":"m 372 339 l 372 396 l 79 396 l 79 339 l 372 339 z "},"":{"ha":850,"x_min":74,"x_max":804,"o":"m 467 0 l 467 992 l 279 992 l 242 935 l 410 935 l 410 0 l 467 0 m 304 715 q 269 796 304 761 q 189 831 235 831 q 108 796 143 831 q 74 715 74 761 q 108 635 74 669 q 189 600 143 600 q 269 635 235 600 q 304 715 304 669 m 275 717 q 249 657 275 683 q 189 631 222 631 q 129 657 156 631 q 103 717 103 683 q 129 776 103 750 q 189 803 156 803 q 249 776 222 803 q 275 717 275 750 m 804 715 q 769 796 804 761 q 689 831 735 831 q 608 796 643 831 q 574 715 574 761 q 608 635 574 669 q 689 600 643 600 q 769 635 735 600 q 804 715 804 669 m 775 717 q 749 657 775 683 q 689 631 722 631 q 629 657 656 631 q 603 717 603 683 q 629 776 603 750 q 689 803 656 803 q 749 776 722 803 q 775 717 775 750 m 172 693 q 181 672 172 681 q 203 663 190 663 q 224 672 215 663 q 233 693 233 681 q 224 715 233 706 q 203 724 215 724 q 181 715 190 724 q 172 693 172 706 m 674 689 q 683 667 674 676 q 704 658 692 658 q 726 667 717 658 q 735 689 735 676 q 726 710 735 701 q 704 719 717 719 q 683 710 692 719 q 674 689 674 701 m 610 -99 l 581 -68 l 442 -206 l 303 -68 l 274 -99 l 442 -265 l 610 -99 z "},"":{"ha":544,"x_min":113,"x_max":465,"o":"m 313 582 l 313 1029 l 229 1029 l 213 1003 l 288 1003 l 288 582 l 313 582 m 465 492 l 465 528 l 113 528 l 113 492 l 465 492 m 418 331 q 379 417 418 383 q 288 450 339 450 q 201 419 240 450 q 157 344 164 392 l 185 344 q 288 425 211 425 q 360 397 328 425 q 392 331 392 372 q 365 253 392 293 l 147 0 l 417 0 l 417 25 l 203 25 l 332 171 q 392 243 381 226 q 418 331 418 288 z "},"":{"ha":544,"x_min":106,"x_max":463,"o":"m 304 582 l 304 1029 l 221 1029 l 204 1003 l 279 1003 l 279 582 l 304 582 m 463 492 l 463 528 l 110 528 l 110 492 l 463 492 m 400 83 l 400 108 l 361 108 l 361 451 l 106 83 l 335 83 l 335 -1 l 361 -1 l 361 83 l 400 83 m 335 108 l 151 108 l 335 368 l 335 108 z "},"":{"ha":544,"x_min":204,"x_max":304,"o":"m 304 582 l 304 1029 l 221 1029 l 204 1003 l 279 1003 l 279 582 l 304 582 z "},"":{"ha":544,"x_min":100,"x_max":454,"o":"m 404 704 q 317 824 404 799 q 400 926 400 846 q 365 1010 400 976 q 281 1040 331 1040 q 199 1011 232 1040 q 161 935 165 985 l 190 935 q 281 1014 203 1014 q 344 989 319 1014 q 369 926 369 965 l 364 892 l 347 865 q 283 842 324 842 l 257 842 l 257 806 l 283 806 l 313 800 q 340 783 325 796 q 376 704 376 756 q 347 633 376 663 q 276 606 317 606 q 215 629 242 606 q 182 678 190 653 l 154 678 q 276 581 181 581 q 368 615 333 581 q 404 704 404 649 m 454 492 l 454 528 l 100 528 l 100 492 l 454 492 m 406 83 l 406 108 l 367 108 l 367 451 l 111 83 l 340 83 l 340 -1 l 367 -1 l 367 83 l 406 83 m 340 108 l 157 108 l 340 368 l 340 108 z "},"":{"ha":544,"x_min":154,"x_max":404,"o":"m 404 704 q 317 824 404 799 q 400 926 400 846 q 365 1010 400 976 q 281 1040 331 1040 q 199 1011 232 1040 q 161 935 165 985 l 190 935 q 281 1014 203 1014 q 344 989 319 1014 q 369 926 369 965 l 364 892 l 347 865 q 283 842 324 842 l 257 842 l 257 806 l 283 806 l 313 800 q 340 783 325 796 q 376 704 376 756 q 347 633 376 663 q 276 606 317 606 q 215 629 242 606 q 182 678 190 653 l 154 678 q 276 581 181 581 q 368 615 333 581 q 404 704 404 649 z "},"":{"ha":544,"x_min":142,"x_max":413,"o":"m 413 911 q 374 997 413 964 q 282 1031 333 1031 q 196 1000 235 1031 q 151 925 158 972 l 179 925 q 282 1006 206 1006 q 354 978 322 1006 q 386 911 386 953 q 360 833 386 874 l 142 581 l 411 581 l 411 606 l 197 606 l 326 751 q 386 824 375 807 q 413 911 413 868 z "},"":{"ha":794,"x_min":32,"x_max":763,"o":"m 424 197 l 424 992 l 367 992 l 367 200 q 263 46 367 46 q 160 110 194 46 l 111 79 q 264 -11 160 -11 q 424 197 424 -11 m 263 854 q 228 935 263 900 q 147 969 193 969 q 67 935 101 969 q 32 854 32 900 q 67 774 32 808 q 147 739 101 739 q 228 774 193 739 q 263 854 263 808 m 233 856 q 207 796 233 822 q 147 769 181 769 q 88 796 114 769 q 61 856 61 822 q 88 915 61 889 q 147 942 114 942 q 207 915 181 942 q 233 856 233 889 m 763 854 q 728 935 763 900 q 647 969 693 969 q 567 935 601 969 q 532 854 532 900 q 567 774 532 808 q 647 739 601 739 q 728 774 693 739 q 763 854 763 808 m 733 856 q 707 796 733 822 q 647 769 681 769 q 588 796 614 769 q 561 856 561 822 q 588 915 561 889 q 647 942 614 942 q 707 915 681 942 q 733 856 733 889 m 131 832 q 140 810 131 819 q 161 801 149 801 q 183 810 174 801 q 192 832 192 819 q 183 853 192 844 q 161 863 174 863 q 140 853 149 863 q 131 832 131 844 m 632 828 q 641 806 632 815 q 663 797 650 797 q 684 806 675 797 q 693 828 693 815 q 684 849 693 840 q 663 858 675 858 q 641 849 650 858 q 632 828 632 840 z "},"":{"ha":1039,"x_min":33,"x_max":901,"o":"m 33 -14 l 731 -14 l 731 43 l 139 43 l 740 956 l 693 992 l 33 -14 m 401 715 q 367 796 401 761 q 286 831 332 831 q 206 796 240 831 q 171 715 171 761 q 206 635 171 669 q 286 600 240 600 q 367 635 332 600 q 401 715 401 669 m 372 717 q 346 657 372 683 q 286 631 319 631 q 226 657 253 631 q 200 717 200 683 q 226 776 200 750 q 286 803 253 803 q 346 776 319 803 q 372 717 372 750 m 901 715 q 867 796 901 761 q 786 831 832 831 q 706 796 740 831 q 671 715 671 761 q 706 635 671 669 q 786 600 740 600 q 867 635 832 600 q 901 715 901 669 m 872 717 q 846 657 872 683 q 786 631 819 631 q 726 657 753 631 q 700 717 700 683 q 726 776 700 750 q 786 803 753 803 q 846 776 819 803 q 872 717 872 750 m 269 693 q 278 672 269 681 q 300 663 288 663 q 322 672 313 663 q 331 693 331 681 q 322 715 331 706 q 300 724 313 724 q 278 715 288 724 q 269 693 269 706 m 771 689 q 780 667 771 676 q 801 658 789 658 q 823 667 814 658 q 832 689 832 676 q 823 710 832 701 q 801 719 814 719 q 780 710 789 719 q 771 689 771 701 m 675 -193 l 650 -162 q 532 -214 599 -214 q 406 -160 460 -214 l 376 -193 q 526 -254 433 -254 q 675 -193 622 -254 z "},"":{"ha":383,"x_min":0,"x_max":0,"o":""},"":{"ha":794,"x_min":32,"x_max":763,"o":"m 263 854 q 228 935 263 900 q 147 969 193 969 q 67 935 101 969 q 32 854 32 900 q 67 774 32 808 q 147 739 101 739 q 228 774 193 739 q 263 854 263 808 m 233 856 q 207 796 233 822 q 147 769 181 769 q 88 796 114 769 q 61 856 61 822 q 88 915 61 889 q 147 942 114 942 q 207 915 181 942 q 233 856 233 889 m 763 854 q 728 935 763 900 q 647 969 693 969 q 567 935 601 969 q 532 854 532 900 q 567 774 532 808 q 647 739 601 739 q 728 774 693 739 q 763 854 763 808 m 733 856 q 707 796 733 822 q 647 769 681 769 q 588 796 614 769 q 561 856 561 822 q 588 915 561 889 q 647 942 614 942 q 707 915 681 942 q 733 856 733 889 m 131 832 q 140 810 131 819 q 161 801 149 801 q 183 810 174 801 q 192 832 192 819 q 183 853 192 844 q 161 863 174 863 q 140 853 149 863 q 131 832 131 844 m 632 828 q 641 806 632 815 q 663 797 650 797 q 684 806 675 797 q 693 828 693 815 q 684 849 693 840 q 663 858 675 858 q 641 849 650 858 q 632 828 632 840 z "}}}
